<svg xmlns="http://www.w3.org/2000/svg" xmlns:xlink="http://www.w3.org/1999/xlink" width="500" zoomAndPan="magnify" viewBox="0 0 375 374.999991" height="500" preserveAspectRatio="xMidYMid meet" version="1.0"><defs><clipPath id="b6e517f1dc"><path d="M 2.890625 75 L 357 75 L 357 299 L 2.890625 299 Z M 2.890625 75 " clip-rule="nonzero"/></clipPath><clipPath id="92b64e17ba"><path d="M 18 76 L 371.890625 76 L 371.890625 284 L 18 284 Z M 18 76 " clip-rule="nonzero"/></clipPath></defs><g clip-path="url(#b6e517f1dc)"><path fill="#000000" d="M 313.296875 192.464844 L 313.28125 192.464844 Z M 4.519531 228.550781 C 52.644531 272.445312 116.328125 298.859375 187.023438 298.859375 C 237.453125 298.859375 296.121094 282.871094 336.496094 252.734375 C 343.125 247.769531 337.359375 240.203125 330.609375 243.308594 C 285.3125 262.652344 236.113281 272.078125 191.3125 272.078125 C 124.921875 272.078125 60.730469 253.59375 8.703125 223.089844 C 4.152344 220.371094 0.722656 225.089844 4.519531 228.550781 M 267.050781 82.226562 C 267.050781 80.136719 265.925781 79.121094 263.972656 79.121094 L 252.582031 79.121094 L 252.058594 79.105469 C 250.460938 79.105469 248.984375 79.566406 247.769531 80.367188 C 246.886719 81.113281 246.066406 82.726562 245.308594 85.207031 L 224.074219 168.28125 L 204.6875 85.207031 C 204.210938 82.839844 203.335938 81.105469 202.367188 80.367188 C 201.382812 79.503906 199.785156 79.121094 197.445312 79.121094 L 187.667969 79.121094 L 187.128906 79.105469 C 185.539062 79.101562 184.066406 79.523438 182.71875 80.367188 C 181.765625 81.113281 180.988281 82.726562 180.394531 85.207031 L 161.253906 167.296875 L 140.621094 85.207031 C 139.898438 82.839844 139.160156 81.105469 138.160156 80.367188 C 137.308594 79.523438 135.722656 79.109375 133.394531 79.121094 L 121.355469 79.121094 C 119.402344 79.121094 118.417969 80.242188 118.417969 82.226562 L 118.433594 82.316406 C 118.617188 84.070312 119.003906 85.761719 119.527344 87.207031 L 148.355469 183.070312 C 149.09375 185.421875 149.953125 187.160156 150.9375 187.898438 C 151.921875 188.773438 153.398438 189.144531 155.609375 189.144531 L 166.15625 189.128906 C 168.355469 189.128906 170.078125 188.757812 171.078125 187.882812 C 172.046875 187.007812 172.769531 185.390625 173.382812 182.917969 L 192.296875 103.074219 L 211.328125 183.039062 C 211.804688 185.53125 212.667969 187.144531 213.636719 188.007812 C 214.636719 188.882812 216.234375 189.25 218.554688 189.25 L 229.101562 189.25 L 229.550781 189.265625 C 231.117188 189.265625 232.578125 188.804688 233.777344 188.007812 C 234.761719 187.269531 235.621094 185.660156 236.359375 183.179688 L 265.925781 87.332031 L 265.878906 87.453125 C 266.300781 86.410156 266.601562 85.335938 266.789062 84.226562 C 266.910156 83.472656 267.050781 82.855469 267.050781 82.226562 M 336.25 159.746094 L 336.25 160.085938 C 336.253906 161.230469 336.113281 162.359375 335.824219 163.472656 C 335.539062 164.582031 335.117188 165.636719 334.558594 166.640625 C 334 167.640625 333.324219 168.554688 332.527344 169.382812 C 331.734375 170.210938 330.847656 170.925781 329.871094 171.523438 C 325.703125 174.261719 319.675781 175.628906 311.960938 175.628906 C 307.039062 175.628906 302.257812 175.136719 297.351562 174.136719 C 292.699219 173.179688 288.199219 171.734375 283.855469 169.800781 C 282.625 169.308594 281.515625 168.800781 280.777344 168.554688 C 280.058594 168.324219 279.320312 168.203125 278.566406 168.1875 C 276.734375 168.1875 275.75 169.433594 275.75 172.03125 L 275.75 178.351562 C 275.773438 179.632812 276.015625 180.789062 276.488281 181.824219 C 276.980469 182.949219 278.320312 184.191406 280.285156 185.285156 C 283.484375 187.144531 288.265625 188.757812 294.402344 190.25 C 300.609375 191.726562 306.902344 192.464844 313.28125 192.464844 C 319.261719 192.496094 325.109375 191.628906 330.824219 189.867188 C 336.097656 188.253906 340.632812 186.023438 344.445312 182.917969 C 348.242188 179.933594 351.195312 176.230469 353.410156 172 C 355.484375 167.789062 356.59375 162.945312 356.59375 157.609375 C 356.613281 151.152344 354.730469 145.367188 350.949219 140.25 C 347.152344 135.175781 340.757812 131.195312 331.929688 128.335938 L 314.496094 122.769531 C 307.992188 120.664062 303.457031 118.296875 301.011719 115.929688 C 299.804688 114.785156 298.882812 113.445312 298.238281 111.910156 C 297.597656 110.378906 297.292969 108.78125 297.320312 107.117188 C 297.320312 102.042969 299.289062 98.445312 303.085938 96.09375 C 306.886719 93.742188 312.421875 92.636719 319.417969 92.636719 L 320.277344 92.636719 C 328.1875 92.621094 335.75 94.230469 342.96875 97.460938 L 342.910156 97.433594 C 344.378906 98.261719 345.953125 98.769531 347.628906 98.953125 C 349.472656 98.953125 350.457031 97.585938 350.457031 94.972656 L 350.457031 89.207031 L 350.472656 88.804688 C 350.480469 87.464844 350.109375 86.234375 349.367188 85.117188 L 349.351562 85.085938 C 348.359375 83.78125 347.136719 82.757812 345.675781 82.011719 C 344.046875 81.066406 342.328125 80.316406 340.527344 79.765625 C 338.214844 79.03125 335.882812 78.375 333.53125 77.796875 C 330.949219 77.304688 328.378906 76.796875 325.566406 76.429688 C 322.835938 76.082031 320.09375 75.917969 317.339844 75.9375 C 311.945312 75.9375 306.792969 76.566406 301.875 78.042969 C 296.953125 79.519531 292.800781 81.625 289.113281 84.484375 C 285.441406 87.246094 282.496094 90.632812 280.269531 94.648438 C 279.128906 96.757812 278.277344 98.980469 277.714844 101.3125 C 277.152344 103.644531 276.898438 106.011719 276.949219 108.410156 C 276.980469 115.21875 279.289062 121.492188 283.101562 126.398438 C 287.144531 131.980469 293.769531 136.191406 302.734375 139.019531 L 320.523438 144.617188 C 326.535156 146.601562 330.714844 148.722656 332.929688 151.058594 C 334.992188 153.210938 336.25 156.164062 336.25 159.410156 Z M 336.25 159.746094 " fill-opacity="1" fill-rule="nonzero"/></g><g clip-path="url(#92b64e17ba)"><path fill="#000000" d="M 347.660156 282.238281 C 369.261719 263.898438 374.90625 225.582031 370.492188 220 C 366.078125 214.542969 328.148438 209.839844 305.085938 226.199219 C 301.519531 228.8125 302.132812 232.285156 306.054688 231.792969 C 319.183594 230.179688 348.152344 226.71875 353.316406 233.394531 C 358.46875 239.972656 347.550781 267.632812 342.632812 279.902344 C 341.15625 283.609375 344.355469 285.097656 347.660156 282.238281 M 72.386719 125.03125 C 68.074219 124.390625 63.738281 124.054688 59.378906 124.03125 C 46.742188 124.03125 36.808594 127.257812 29.320312 133.703125 C 21.832031 140.128906 18.160156 148.707031 18.160156 159.238281 C 18.179688 169.171875 21.203125 177.109375 27.230469 183.054688 C 33.242188 189.003906 41.46875 191.972656 51.769531 191.972656 C 66.261719 191.972656 78.289062 186.273438 87.851562 174.875 L 88.097656 175.445312 C 89.269531 177.90625 90.542969 180.289062 91.667969 182.179688 L 91.757812 182.332031 C 93.039062 184.382812 94.480469 186.273438 96.078125 188.007812 C 97.292969 189.128906 98.523438 189.757812 99.753906 189.757812 L 99.769531 189.757812 C 100.945312 189.714844 102.007812 189.339844 102.953125 188.636719 L 110.683594 183.441406 C 112.261719 182.1875 113.042969 180.949219 113.023438 179.71875 C 113.007812 178.6875 112.71875 177.738281 112.160156 176.875 C 110.609375 173.996094 109.300781 171.011719 108.226562 167.925781 C 107.238281 164.316406 106.785156 160.644531 106.871094 156.902344 L 106.625 156.917969 L 106.625 116.726562 C 106.605469 103.085938 103.210938 92.921875 96.449219 86.238281 C 89.574219 79.535156 78.90625 76.183594 64.296875 76.183594 L 63.589844 76.183594 C 57.042969 76.183594 50.675781 77.042969 45.140625 78.535156 C 39.773438 79.792969 34.621094 81.65625 29.691406 84.117188 L 29.628906 84.132812 C 28.296875 84.722656 27.171875 85.578125 26.246094 86.699219 C 25.628906 87.578125 25.382812 89.066406 25.382812 91.050781 L 25.382812 97.125 C 25.382812 99.707031 26.246094 100.988281 27.96875 100.96875 L 27.984375 100.96875 C 28.644531 100.933594 29.289062 100.816406 29.921875 100.613281 L 30.167969 100.554688 C 31.554688 100.125 32.910156 99.601562 34.226562 98.984375 C 38.515625 97.246094 42.941406 95.878906 47.476562 94.757812 C 52.015625 93.632812 56.441406 93.15625 60.746094 93.15625 C 70.1875 93.15625 76.8125 95.003906 80.734375 98.863281 C 84.546875 102.707031 86.5 109.269531 86.5 118.695312 L 86.5 127.75 C 81.835938 126.644531 77.128906 125.738281 72.386719 125.03125 M 86.761719 141.648438 L 86.761719 146.847656 C 86.761719 151.058594 86.253906 154.65625 85.53125 157.625 C 84.75 160.597656 83.355469 163.246094 81.347656 165.574219 C 79.78125 167.375 78.011719 168.949219 76.035156 170.296875 C 74.0625 171.640625 71.949219 172.710938 69.695312 173.507812 C 65.601562 174.933594 61.390625 175.679688 57.058594 175.738281 C 51.398438 175.738281 47.109375 174.246094 44.171875 171.140625 C 41.097656 168.171875 39.636719 163.820312 39.636719 157.992188 C 39.636719 151.796875 41.589844 147.09375 45.632812 143.757812 C 49.691406 140.40625 55.703125 138.789062 63.929688 138.789062 C 68.003906 138.789062 72 139.066406 75.460938 139.527344 L 75.984375 139.589844 C 79.890625 140.113281 83.71875 140.851562 86.761719 141.648438 " fill-opacity="1" fill-rule="nonzero"/></g></svg>