<svg xmlns="http://www.w3.org/2000/svg" xmlns:xlink="http://www.w3.org/1999/xlink" width="500" zoomAndPan="magnify" viewBox="0 0 375 374.999991" height="500" preserveAspectRatio="xMidYMid meet" version="1.0"><path fill="#000000" d="M 136.125 136.125 L 163.96875 136.125 C 165.515625 136.125 167.0625 134.578125 167.0625 133.03125 L 167.0625 109.828125 C 167.0625 108.28125 165.515625 106.734375 163.96875 106.734375 L 136.125 106.734375 C 134.578125 106.734375 133.03125 108.28125 133.03125 109.828125 L 133.03125 134.578125 C 133.03125 134.578125 134.578125 136.125 136.125 136.125 M 173.25 171.703125 L 201.09375 171.703125 C 202.640625 171.703125 204.1875 170.15625 204.1875 168.609375 L 204.1875 143.859375 C 204.1875 142.3125 202.640625 140.765625 201.09375 140.765625 L 173.25 140.765625 C 171.703125 140.765625 170.15625 142.3125 170.15625 143.859375 L 170.15625 168.609375 C 170.15625 170.15625 171.703125 171.703125 173.25 171.703125 M 173.25 136.125 L 201.09375 136.125 C 202.640625 136.125 204.1875 134.578125 204.1875 133.03125 L 204.1875 109.828125 L 201.09375 106.734375 L 173.25 106.734375 C 171.703125 106.734375 170.15625 108.28125 170.15625 109.828125 L 170.15625 134.578125 C 170.15625 134.578125 171.703125 136.125 173.25 136.125 M 211.921875 171.703125 L 239.765625 171.703125 C 241.3125 171.703125 242.859375 170.15625 242.859375 168.609375 L 242.859375 143.859375 C 242.859375 142.3125 241.3125 140.765625 239.765625 140.765625 L 211.921875 140.765625 C 210.375 140.765625 208.828125 142.3125 208.828125 143.859375 L 208.828125 168.609375 C 208.828125 170.15625 210.375 171.703125 211.921875 171.703125 M 173.25 100.546875 L 201.09375 100.546875 C 202.640625 100.546875 204.1875 99 204.1875 97.453125 L 204.1875 74.25 C 204.1875 72.703125 202.640625 71.15625 201.09375 71.15625 L 173.25 71.15625 C 171.703125 71.15625 170.15625 72.703125 170.15625 74.25 L 170.15625 99 C 170.15625 100.546875 171.703125 100.546875 173.25 100.546875 M 58.78125 171.703125 L 86.625 171.703125 C 88.171875 171.703125 89.71875 170.15625 89.71875 168.609375 L 89.71875 143.859375 C 89.71875 142.3125 88.171875 140.765625 86.625 140.765625 L 58.78125 140.765625 C 57.234375 140.765625 55.6875 142.3125 55.6875 143.859375 L 55.6875 168.609375 Z M 337.21875 156.234375 C 329.484375 151.59375 320.203125 148.5 312.46875 150.046875 C 307.828125 150.046875 303.1875 150.046875 300.09375 151.59375 C 297 137.671875 289.265625 125.296875 278.4375 119.109375 L 273.796875 116.015625 L 270.703125 120.65625 C 266.0625 123.75 262.96875 129.9375 261.421875 137.671875 C 258.328125 150.046875 259.875 162.421875 266.0625 171.703125 C 258.328125 174.796875 250.59375 176.34375 242.859375 177.890625 L 40.21875 177.890625 C 35.578125 177.890625 30.9375 182.53125 30.9375 187.171875 C 30.9375 205.734375 34.03125 222.75 40.21875 239.765625 C 46.40625 256.78125 57.234375 270.703125 71.15625 279.984375 C 92.8125 290.8125 116.015625 295.453125 139.21875 293.90625 C 151.59375 293.90625 163.96875 292.359375 176.34375 290.8125 C 193.359375 287.71875 210.375 281.53125 225.84375 272.25 C 238.21875 264.515625 249.046875 255.234375 259.875 244.40625 C 273.796875 227.390625 284.625 208.828125 292.359375 187.171875 L 295.453125 187.171875 C 307.828125 187.171875 320.203125 182.53125 329.484375 174.796875 C 334.125 171.703125 337.21875 167.0625 338.765625 160.875 L 340.3125 157.78125 Z M 97.453125 171.703125 L 123.75 171.703125 C 125.296875 171.703125 126.84375 170.15625 126.84375 168.609375 L 126.84375 143.859375 C 126.84375 142.3125 125.296875 140.765625 123.75 140.765625 L 97.453125 140.765625 C 95.90625 140.765625 94.359375 142.3125 94.359375 143.859375 L 94.359375 168.609375 C 94.359375 170.15625 95.90625 171.703125 97.453125 171.703125 M 97.453125 136.125 L 123.75 136.125 C 125.296875 136.125 126.84375 134.578125 126.84375 133.03125 L 126.84375 109.828125 C 126.84375 108.28125 125.296875 106.734375 123.75 106.734375 L 97.453125 106.734375 C 95.90625 106.734375 94.359375 108.28125 94.359375 109.828125 L 94.359375 134.578125 C 94.359375 134.578125 95.90625 136.125 97.453125 136.125 M 136.125 171.703125 L 163.96875 171.703125 C 165.515625 171.703125 167.0625 170.15625 167.0625 168.609375 L 167.0625 143.859375 C 167.0625 142.3125 165.515625 140.765625 163.96875 140.765625 L 136.125 140.765625 C 134.578125 140.765625 133.03125 142.3125 133.03125 143.859375 L 133.03125 168.609375 C 133.03125 170.15625 134.578125 171.703125 136.125 171.703125 " fill-opacity="1" fill-rule="nonzero"/></svg>