<svg xmlns="http://www.w3.org/2000/svg" xmlns:xlink="http://www.w3.org/1999/xlink" width="500" zoomAndPan="magnify" viewBox="0 0 375 374.999991" height="500" preserveAspectRatio="xMidYMid meet" version="1.0"><path fill="#000000" d="M 295.78125 177.46875 L 197.53125 79.21875 C 196.855469 78.550781 196.117188 77.953125 195.324219 77.429688 C 194.53125 76.90625 193.691406 76.464844 192.8125 76.101562 C 191.933594 75.742188 191.027344 75.46875 190.09375 75.285156 C 189.160156 75.101562 188.21875 75.011719 187.265625 75.011719 C 186.3125 75.011719 185.371094 75.101562 184.4375 75.285156 C 183.503906 75.46875 182.597656 75.742188 181.71875 76.101562 C 180.839844 76.464844 180 76.90625 179.207031 77.429688 C 178.414062 77.953125 177.675781 78.550781 177 79.21875 L 156.65625 99.65625 L 182.53125 125.53125 C 184.054688 125.007812 185.625 124.703125 187.234375 124.625 C 188.84375 124.542969 190.433594 124.683594 192.003906 125.050781 C 193.574219 125.417969 195.066406 125.992188 196.472656 126.78125 C 197.878906 127.566406 199.152344 128.53125 200.285156 129.679688 C 201.421875 130.824219 202.378906 132.101562 203.152344 133.515625 C 203.925781 134.933594 204.488281 136.425781 204.84375 138 C 205.195312 139.570312 205.324219 141.164062 205.230469 142.773438 C 205.132812 144.382812 204.816406 145.949219 204.28125 147.46875 L 229.21875 172.40625 C 230.1875 172.050781 231.183594 171.789062 232.199219 171.613281 C 233.21875 171.4375 234.242188 171.355469 235.277344 171.363281 C 236.308594 171.371094 237.332031 171.472656 238.347656 171.667969 C 239.363281 171.859375 240.351562 172.140625 241.316406 172.511719 C 242.28125 172.882812 243.203125 173.335938 244.085938 173.871094 C 244.96875 174.40625 245.796875 175.019531 246.570312 175.703125 C 247.339844 176.390625 248.046875 177.136719 248.6875 177.949219 C 249.324219 178.761719 249.886719 179.625 250.367188 180.535156 C 250.851562 181.449219 251.25 182.398438 251.5625 183.378906 C 251.878906 184.363281 252.101562 185.367188 252.234375 186.394531 C 252.367188 187.417969 252.40625 188.445312 252.355469 189.476562 C 252.304688 190.507812 252.160156 191.527344 251.925781 192.53125 C 251.691406 193.539062 251.367188 194.515625 250.957031 195.464844 C 250.546875 196.410156 250.058594 197.316406 249.484375 198.175781 C 248.910156 199.035156 248.269531 199.835938 247.550781 200.578125 C 246.835938 201.324219 246.058594 201.996094 245.21875 202.601562 C 244.382812 203.207031 243.496094 203.730469 242.566406 204.175781 C 241.632812 204.621094 240.671875 204.980469 239.675781 205.253906 C 238.679688 205.523438 237.664062 205.707031 236.636719 205.796875 C 235.609375 205.886719 234.578125 205.886719 233.550781 205.789062 C 232.523438 205.695312 231.511719 205.511719 230.515625 205.234375 C 229.519531 204.957031 228.558594 204.597656 227.628906 204.148438 C 226.695312 203.699219 225.816406 203.171875 224.980469 202.5625 C 224.144531 201.953125 223.371094 201.277344 222.65625 200.53125 C 222.0625 199.929688 221.511719 199.289062 221.011719 198.609375 C 220.507812 197.929688 220.058594 197.214844 219.664062 196.46875 C 219.265625 195.722656 218.925781 194.953125 218.640625 194.15625 C 218.355469 193.359375 218.128906 192.546875 217.964844 191.71875 C 217.796875 190.890625 217.695312 190.054688 217.648438 189.210938 C 217.605469 188.367188 217.625 187.523438 217.703125 186.679688 C 217.785156 185.839844 217.925781 185.007812 218.125 184.1875 C 218.328125 183.367188 218.585938 182.5625 218.90625 181.78125 L 195.65625 159.375 L 195.65625 220.5 C 197.320312 221.367188 198.820312 222.460938 200.15625 223.78125 C 200.59375 224.214844 201.007812 224.671875 201.398438 225.148438 C 201.785156 225.628906 202.148438 226.125 202.484375 226.644531 C 202.820312 227.160156 203.128906 227.695312 203.40625 228.242188 C 203.6875 228.792969 203.9375 229.355469 204.15625 229.933594 C 204.375 230.511719 204.5625 231.097656 204.71875 231.691406 C 204.875 232.289062 205 232.890625 205.09375 233.503906 C 205.183594 234.113281 205.242188 234.726562 205.269531 235.339844 C 205.296875 235.957031 205.292969 236.574219 205.253906 237.1875 C 205.214844 237.804688 205.140625 238.414062 205.039062 239.023438 C 204.933594 239.632812 204.796875 240.230469 204.628906 240.824219 C 204.460938 241.417969 204.261719 242 204.03125 242.574219 C 203.800781 243.144531 203.542969 243.703125 203.25 244.246094 C 202.960938 244.792969 202.644531 245.320312 202.296875 245.828125 C 201.953125 246.339844 201.578125 246.832031 201.179688 247.300781 C 200.78125 247.773438 200.359375 248.21875 199.914062 248.644531 C 199.46875 249.070312 199 249.472656 198.511719 249.847656 C 198.023438 250.222656 197.515625 250.574219 196.988281 250.894531 C 196.460938 251.214844 195.921875 251.507812 195.363281 251.773438 C 194.804688 252.035156 194.234375 252.269531 193.652344 252.472656 C 193.070312 252.675781 192.480469 252.847656 191.878906 252.988281 C 191.277344 253.128906 190.671875 253.234375 190.058594 253.308594 C 189.449219 253.386719 188.832031 253.425781 188.214844 253.4375 C 187.601562 253.445312 186.984375 253.425781 186.371094 253.367188 C 185.757812 253.3125 185.148438 253.222656 184.542969 253.101562 C 183.9375 252.980469 183.339844 252.828125 182.753906 252.644531 C 182.164062 252.460938 181.585938 252.246094 181.019531 252 C 180.457031 251.753906 179.90625 251.476562 179.367188 251.171875 C 178.832031 250.867188 178.316406 250.535156 177.8125 250.175781 C 177.3125 249.8125 176.832031 249.429688 176.375 249.015625 C 175.914062 248.605469 175.476562 248.171875 175.066406 247.714844 C 174.652344 247.253906 174.265625 246.777344 173.902344 246.277344 C 173.539062 245.777344 173.207031 245.261719 172.898438 244.726562 C 172.59375 244.191406 172.316406 243.640625 172.066406 243.078125 C 171.816406 242.511719 171.601562 241.9375 171.414062 241.347656 C 171.226562 240.761719 171.074219 240.164062 170.949219 239.558594 C 170.824219 238.957031 170.734375 238.347656 170.675781 237.734375 C 170.617188 237.117188 170.59375 236.503906 170.601562 235.886719 C 170.609375 235.269531 170.648438 234.65625 170.722656 234.042969 C 170.792969 233.429688 170.898438 232.824219 171.039062 232.222656 C 171.175781 231.621094 171.34375 231.03125 171.546875 230.445312 C 171.746094 229.863281 171.976562 229.292969 172.238281 228.734375 C 172.5 228.175781 172.792969 227.632812 173.113281 227.105469 C 173.429688 226.578125 173.777344 226.070312 174.152344 225.578125 C 174.527344 225.089844 174.925781 224.621094 175.347656 224.171875 C 175.773438 223.722656 176.21875 223.300781 176.6875 222.898438 C 177.15625 222.5 177.648438 222.125 178.15625 221.777344 C 178.664062 221.429688 179.191406 221.109375 179.734375 220.816406 C 180.277344 220.527344 180.835938 220.265625 181.40625 220.03125 L 181.40625 157.78125 C 180.878906 157.570312 180.359375 157.335938 179.855469 157.074219 C 179.351562 156.8125 178.859375 156.527344 178.382812 156.214844 C 177.90625 155.90625 177.449219 155.570312 177.003906 155.214844 C 176.5625 154.855469 176.136719 154.480469 175.734375 154.082031 C 175.328125 153.679688 174.945312 153.261719 174.582031 152.824219 C 174.21875 152.386719 173.875 151.933594 173.558594 151.460938 C 173.242188 150.992188 172.949219 150.503906 172.679688 150.003906 C 172.410156 149.503906 172.164062 148.988281 171.949219 148.464844 C 171.730469 147.9375 171.539062 147.402344 171.375 146.859375 C 171.210938 146.316406 171.074219 145.765625 170.964844 145.207031 C 170.855469 144.648438 170.773438 144.085938 170.71875 143.519531 C 170.667969 142.953125 170.640625 142.386719 170.644531 141.816406 C 170.648438 141.25 170.679688 140.679688 170.742188 140.117188 C 170.800781 139.550781 170.890625 138.988281 171.007812 138.433594 C 171.121094 137.875 171.265625 137.328125 171.4375 136.785156 C 171.609375 136.242188 171.808594 135.710938 172.03125 135.1875 L 146.625 109.6875 L 79.21875 177 C 78.550781 177.675781 77.953125 178.414062 77.429688 179.207031 C 76.90625 180 76.464844 180.839844 76.101562 181.71875 C 75.742188 182.597656 75.46875 183.503906 75.285156 184.4375 C 75.101562 185.371094 75.011719 186.3125 75.011719 187.265625 C 75.011719 188.21875 75.101562 189.160156 75.285156 190.09375 C 75.46875 191.027344 75.742188 191.933594 76.101562 192.8125 C 76.464844 193.691406 76.90625 194.53125 77.429688 195.324219 C 77.953125 196.117188 78.550781 196.855469 79.21875 197.53125 L 177.46875 295.78125 C 178.144531 296.449219 178.882812 297.046875 179.675781 297.570312 C 180.46875 298.09375 181.308594 298.535156 182.1875 298.898438 C 183.066406 299.257812 183.972656 299.53125 184.90625 299.714844 C 185.839844 299.898438 186.78125 299.988281 187.734375 299.988281 C 188.6875 299.988281 189.628906 299.898438 190.5625 299.714844 C 191.496094 299.53125 192.402344 299.257812 193.28125 298.898438 C 194.160156 298.535156 195 298.09375 195.792969 297.570312 C 196.585938 297.046875 197.324219 296.449219 198 295.78125 L 295.78125 198 C 296.449219 197.324219 297.046875 196.585938 297.570312 195.792969 C 298.09375 195 298.535156 194.160156 298.898438 193.28125 C 299.257812 192.402344 299.53125 191.496094 299.714844 190.5625 C 299.898438 189.628906 299.988281 188.6875 299.988281 187.734375 C 299.988281 186.78125 299.898438 185.839844 299.714844 184.90625 C 299.53125 183.972656 299.257812 183.066406 298.898438 182.1875 C 298.535156 181.308594 298.09375 180.46875 297.570312 179.675781 C 297.046875 178.882812 296.449219 178.144531 295.78125 177.46875 " fill-opacity="1" fill-rule="nonzero"/></svg>