<svg xmlns="http://www.w3.org/2000/svg" xmlns:xlink="http://www.w3.org/1999/xlink" width="500" zoomAndPan="magnify" viewBox="0 0 375 374.999991" height="500" preserveAspectRatio="xMidYMid meet" version="1.0"><path fill="#000000" d="M 316.992188 189.84375 C 316.699219 189.550781 316.40625 189.257812 315.820312 189.257812 L 315.527344 188.964844 C 315.234375 188.671875 314.941406 188.671875 314.941406 188.378906 L 314.648438 188.085938 C 314.355469 188.085938 314.0625 187.792969 314.0625 187.792969 L 313.476562 187.5 C 313.183594 187.5 312.890625 187.207031 312.890625 187.207031 L 312.304688 186.914062 C 312.011719 186.914062 311.71875 186.621094 311.71875 186.621094 C 311.425781 186.621094 311.425781 186.621094 311.132812 186.328125 L 310.253906 186.035156 C 309.960938 186.035156 309.960938 186.035156 309.667969 185.742188 L 308.789062 185.449219 L 308.496094 185.449219 L 307.324219 185.15625 L 306.738281 185.15625 C 306.445312 185.15625 306.152344 185.15625 305.859375 184.863281 L 299.121094 184.863281 C 297.363281 145.898438 300.878906 106.347656 290.917969 68.847656 C 328.710938 55.371094 299.121094 3.515625 266.308594 26.660156 C 244.628906 7.910156 214.746094 3.808594 183.398438 3.808594 C 152.636719 5.859375 123.632812 12.304688 103.125 28.417969 C 94.921875 24.316406 87.011719 23.144531 79.980469 25.195312 L 79.980469 25.488281 C 79.6875 25.488281 79.101562 25.78125 78.808594 26.074219 C 78.515625 26.074219 77.929688 26.367188 77.636719 26.660156 L 77.34375 26.660156 C 77.050781 26.660156 76.757812 26.953125 76.171875 27.246094 L 75.878906 27.246094 L 75 27.832031 L 74.707031 27.832031 L 73.828125 28.417969 L 73.535156 28.417969 L 72.65625 29.003906 C 72.65625 29.003906 72.363281 29.003906 72.363281 29.296875 L 71.484375 29.882812 C 71.484375 29.882812 71.191406 29.882812 71.191406 30.175781 L 70.3125 30.761719 C 70.3125 30.761719 70.019531 30.761719 70.019531 31.054688 L 69.140625 31.640625 L 68.847656 31.933594 C 68.554688 32.226562 68.261719 32.226562 68.261719 32.519531 L 67.089844 33.691406 C 66.796875 33.984375 66.796875 34.277344 66.503906 34.277344 L 66.210938 34.570312 C 65.917969 34.863281 65.917969 35.15625 65.625 35.15625 L 65.332031 35.449219 C 65.039062 35.742188 65.039062 36.035156 64.746094 36.035156 L 64.453125 36.328125 C 64.160156 36.621094 64.160156 36.914062 63.867188 36.914062 L 63.574219 37.207031 C 63.28125 37.5 63.28125 37.792969 62.988281 37.792969 L 62.695312 38.085938 L 62.402344 38.964844 C 62.402344 38.964844 62.402344 39.257812 62.109375 39.257812 L 61.816406 40.136719 C 61.816406 40.136719 61.816406 40.429688 61.523438 40.429688 L 61.230469 41.308594 C 61.230469 41.308594 61.230469 41.601562 60.9375 41.601562 L 60.644531 42.480469 C 60.644531 42.480469 60.644531 42.773438 60.351562 42.773438 C 61.523438 43.652344 61.523438 43.945312 61.523438 43.945312 L 61.523438 44.238281 L 61.230469 45.117188 L 61.230469 45.410156 C 61.230469 45.703125 61.230469 45.996094 60.9375 46.289062 L 60.9375 55.371094 C 60.9375 55.664062 60.9375 55.957031 61.230469 56.25 L 61.230469 56.542969 L 61.523438 57.421875 L 61.523438 57.714844 L 61.816406 58.59375 C 61.816406 58.59375 61.816406 58.886719 62.109375 58.886719 L 62.402344 59.765625 C 62.402344 59.765625 62.402344 60.058594 62.695312 60.058594 L 62.988281 60.9375 C 62.988281 60.9375 62.988281 61.230469 63.28125 61.230469 L 63.867188 62.109375 C 63.867188 62.109375 63.867188 62.402344 64.160156 62.402344 L 64.746094 63.28125 C 64.746094 63.28125 64.746094 63.574219 65.039062 63.574219 L 65.625 64.453125 L 67.675781 66.503906 L 67.96875 66.503906 C 70.898438 69.140625 73.828125 71.191406 79.6875 72.949219 L 79.6875 72.363281 C 67.382812 109.277344 77.636719 146.484375 78.222656 184.570312 C 76.464844 184.570312 76.171875 185.742188 73.242188 186.035156 L 71.777344 186.035156 C 71.484375 186.035156 70.898438 186.035156 70.3125 186.328125 C 70.019531 186.328125 69.433594 186.328125 69.140625 186.621094 L 67.96875 186.914062 L 67.675781 186.914062 L 66.503906 187.207031 L 66.210938 187.207031 L 65.332031 187.5 L 65.039062 187.5 L 64.160156 187.792969 C 64.160156 187.792969 63.867188 187.792969 63.867188 188.085938 L 62.988281 188.378906 L 62.402344 188.671875 C 62.109375 188.671875 61.816406 188.964844 61.816406 188.964844 L 60.644531 189.550781 C 60.351562 189.550781 60.058594 189.84375 60.058594 189.84375 L 59.472656 190.136719 L 58.300781 191.015625 C 58.007812 191.308594 57.714844 191.601562 57.421875 191.601562 L 55.957031 193.066406 C 55.664062 193.652344 55.078125 194.238281 54.785156 194.53125 L 54.199219 195.410156 L 53.320312 197.167969 L 53.027344 198.046875 L 53.027344 198.925781 C 53.027344 200.390625 53.613281 201.5625 55.664062 202.441406 C 56.25 213.28125 67.089844 208.300781 72.070312 204.785156 L 72.363281 204.492188 C 72.949219 203.90625 73.828125 203.613281 74.121094 203.613281 L 74.414062 203.613281 L 75 203.320312 C 75.292969 203.320312 75.292969 203.320312 75.585938 203.027344 C 76.171875 202.734375 76.757812 202.734375 77.050781 202.441406 C 77.34375 202.441406 77.34375 202.148438 77.34375 201.855469 L 77.636719 201.5625 C 77.929688 200.976562 78.222656 199.804688 78.222656 198.046875 L 78.515625 194.238281 L 78.515625 199.511719 C 77.050781 237.890625 66.796875 289.453125 88.183594 324.023438 C 91.992188 330.175781 96.679688 335.449219 101.953125 339.84375 L 100.488281 339.84375 C 99.902344 340.429688 99.023438 341.015625 98.144531 341.601562 L 92.871094 345.117188 L 90.234375 347.167969 L 87.011719 350.097656 C 86.425781 350.683594 86.132812 351.269531 85.839844 351.5625 L 84.082031 354.199219 C 83.789062 354.785156 83.496094 355.371094 83.496094 355.957031 L 83.203125 356.835938 C 82.617188 359.179688 83.203125 361.816406 84.960938 364.746094 L 86.132812 365.917969 L 86.71875 365.917969 C 87.011719 365.917969 87.304688 365.917969 87.890625 366.210938 C 88.476562 367.382812 91.40625 373.535156 99.316406 368.847656 C 107.519531 364.453125 113.085938 355.371094 123.046875 353.90625 L 121.582031 352.148438 C 138.867188 360.351562 159.082031 363.867188 177.246094 364.453125 C 202.734375 365.332031 231.738281 361.816406 254.882812 349.21875 C 261.328125 351.269531 266.308594 360.644531 271.875 365.039062 L 273.046875 366.210938 C 273.046875 366.210938 273.339844 366.210938 273.339844 366.503906 C 273.339844 366.503906 273.632812 366.503906 273.632812 366.796875 C 273.632812 366.796875 273.925781 366.796875 273.925781 367.089844 L 280.078125 367.089844 C 280.078125 367.089844 280.371094 367.089844 280.371094 366.796875 L 280.664062 366.796875 C 280.664062 366.796875 280.957031 366.796875 280.957031 366.503906 L 281.25 366.503906 C 281.25 366.503906 281.542969 366.503906 281.542969 366.210938 C 281.542969 366.210938 281.835938 366.210938 281.835938 365.917969 L 282.128906 365.625 C 282.128906 365.625 282.421875 365.625 282.421875 365.332031 L 282.714844 365.039062 L 283.007812 365.039062 L 283.59375 364.453125 L 284.179688 364.160156 L 284.472656 364.160156 L 284.765625 363.867188 L 285.058594 363.867188 L 287.109375 361.816406 L 287.109375 361.523438 C 287.109375 361.523438 287.109375 361.230469 287.402344 361.230469 L 287.402344 360.9375 C 287.402344 360.9375 287.402344 360.644531 287.695312 360.644531 L 287.695312 360.351562 C 287.695312 360.351562 287.695312 360.058594 287.988281 360.058594 L 287.988281 355.957031 C 287.988281 355.957031 287.109375 355.957031 287.109375 355.664062 L 286.230469 355.371094 L 286.230469 355.078125 L 287.109375 354.785156 C 287.109375 354.785156 287.695312 354.785156 287.695312 354.492188 L 287.988281 354.199219 L 287.988281 348.046875 C 287.988281 348.046875 287.988281 347.753906 287.695312 347.753906 L 287.695312 347.460938 C 287.695312 347.460938 287.695312 347.167969 287.402344 347.167969 L 287.402344 346.875 C 287.402344 346.875 287.402344 346.582031 287.109375 346.582031 C 287.109375 346.582031 287.109375 346.289062 286.816406 346.289062 C 286.816406 346.289062 286.816406 345.996094 286.523438 345.996094 C 286.523438 345.996094 286.523438 345.703125 286.230469 345.703125 C 286.230469 345.703125 286.230469 345.410156 285.9375 345.410156 C 285.9375 345.410156 285.9375 345.117188 285.644531 345.117188 C 285.644531 345.117188 285.644531 344.824219 285.351562 344.824219 C 285.351562 344.824219 285.351562 344.53125 285.058594 344.53125 C 285.058594 344.53125 285.058594 344.238281 284.765625 344.238281 C 284.765625 344.238281 284.765625 343.945312 284.472656 343.945312 C 284.472656 343.945312 284.472656 343.652344 284.179688 343.652344 C 284.179688 343.652344 284.179688 343.359375 283.886719 343.359375 C 283.886719 343.359375 283.886719 343.066406 283.59375 343.066406 C 283.59375 343.066406 283.59375 342.773438 283.300781 342.773438 L 279.785156 339.257812 L 279.785156 338.964844 L 274.21875 333.398438 C 280.078125 327.832031 285.351562 321.09375 289.160156 313.183594 C 306.445312 278.613281 303.515625 236.425781 301.171875 198.339844 L 301.464844 198.339844 C 301.757812 198.339844 302.050781 198.632812 302.050781 198.632812 L 302.929688 198.632812 C 302.929688 198.632812 303.222656 198.632812 303.222656 198.925781 L 303.515625 198.925781 C 303.515625 198.925781 303.808594 198.925781 303.808594 199.21875 L 304.394531 199.511719 C 309.375 203.027344 320.214844 208.007812 320.800781 197.167969 C 325.488281 198.925781 319.921875 191.894531 316.992188 189.84375 M 105.46875 67.382812 C 96.09375 20.507812 171.09375 11.71875 173.730469 57.421875 C 176.074219 95.507812 115.136719 105.175781 105.46875 67.382812 M 211.230469 111.328125 C 207.421875 115.429688 203.320312 114.84375 199.21875 113.378906 C 199.21875 118.945312 200.390625 124.804688 199.511719 130.664062 C 198.046875 133.300781 195.117188 133.59375 192.773438 134.765625 C 189.257812 134.179688 186.621094 132.128906 185.15625 128.90625 L 184.570312 128.613281 C 173.144531 143.847656 166.113281 125.390625 169.335938 113.964844 C 165.820312 114.257812 162.890625 113.378906 160.546875 109.570312 C 156.445312 101.953125 162.597656 92.578125 170.507812 91.113281 C 172.558594 99.902344 195.996094 98.730469 200.097656 90.527344 C 209.179688 94.921875 219.140625 103.125 211.230469 111.328125 M 190.722656 60.058594 C 188.085938 19.628906 250.195312 8.789062 259.277344 48.339844 C 269.53125 92.285156 198.339844 103.710938 190.722656 60.058594 M 122.167969 49.804688 C 116.601562 49.804688 111.914062 54.785156 111.914062 60.9375 C 111.914062 67.089844 116.601562 72.070312 122.167969 72.070312 C 127.734375 72.070312 132.421875 67.089844 132.421875 60.9375 C 132.421875 54.785156 128.027344 49.804688 122.167969 49.804688 M 126.855469 66.503906 C 125.390625 66.503906 124.511719 65.332031 124.511719 63.574219 C 124.511719 62.109375 125.683594 60.644531 126.855469 60.644531 C 128.320312 60.644531 129.199219 61.816406 129.199219 63.574219 C 129.199219 65.039062 128.320312 66.503906 126.855469 66.503906 M 208.300781 47.167969 C 202.734375 47.167969 198.339844 52.148438 198.339844 58.300781 C 198.339844 64.453125 202.734375 69.433594 208.300781 69.433594 C 213.867188 69.433594 218.261719 64.453125 218.261719 58.300781 C 218.261719 52.148438 213.867188 47.167969 208.300781 47.167969 M 212.988281 63.574219 C 211.816406 63.574219 210.644531 62.402344 210.644531 60.644531 C 210.644531 59.179688 211.816406 57.714844 212.988281 57.714844 C 214.160156 57.714844 215.332031 58.886719 215.332031 60.644531 C 215.332031 62.402344 214.160156 63.574219 212.988281 63.574219 " fill-opacity="1" fill-rule="nonzero"/></svg>