<svg xmlns="http://www.w3.org/2000/svg" xmlns:xlink="http://www.w3.org/1999/xlink" width="500" zoomAndPan="magnify" viewBox="0 0 375 374.999991" height="500" preserveAspectRatio="xMidYMid meet" version="1.0"><path fill="#000000" d="M 96.359375 294.09375 L 96.1875 293.859375 L 96.15625 293.828125 Z M 96.359375 294.09375 " fill-opacity="1" fill-rule="nonzero"/><path fill="#000000" d="M 80.609375 271.1875 C 85.328125 279.6875 90.3125 287.015625 95.890625 293.84375 C 98.203125 296.828125 100.84375 299.484375 103.484375 302.46875 C 92.53125 333.75 105.140625 360.03125 105.140625 360.03125 C 138.625 361.359375 160.5 345.390625 165.140625 341.734375 L 175.09375 344.734375 C 185.3125 347.433594 195.703125 348.984375 206.265625 349.390625 L 219.859375 349.390625 C 235.4375 372.015625 263.296875 375.015625 263.296875 375.015625 C 282.859375 354.046875 284.1875 333.75 284.1875 329.09375 L 284.1875 327.09375 C 288.171875 324.09375 292.140625 321.109375 296.125 317.78125 C 304.078125 310.796875 310.703125 302.46875 316.671875 293.828125 C 317.34375 293.15625 317.671875 292.171875 318.328125 291.5 C 340.546875 292.828125 356.125 277.53125 356.125 277.53125 C 352.484375 254.234375 339.21875 242.921875 336.578125 240.921875 L 335.59375 239.9375 C 335.59375 238.609375 335.921875 237.28125 335.921875 235.609375 C 336.25 232.953125 336.25 230.625 336.25 227.953125 L 336.25 218.296875 C 336.25 217.625 336.25 216.96875 335.921875 216.296875 L 335.25 212.296875 C 334.921875 209.640625 334.25 207.3125 333.921875 204.640625 C 331.585938 194.691406 327.796875 185.332031 322.546875 176.5625 C 317.359375 168.214844 311.121094 160.746094 303.828125 154.15625 L 303.75 154.0625 C 296.75 147.855469 288.984375 142.828125 280.453125 138.984375 L 279.875 138.75 C 271.679688 134.878906 263.074219 132.445312 254.0625 131.453125 L 253.6875 131.421875 C 249.375 130.75 244.734375 130.75 240.421875 130.75 L 233.796875 130.75 C 231.585938 131.058594 229.375 131.394531 227.171875 131.75 C 218.441406 133.402344 210.265625 136.503906 202.640625 141.0625 C 195.34375 145.390625 189.046875 151.046875 183.734375 157.359375 C 178.652344 163.289062 174.726562 169.902344 171.953125 177.203125 L 171.796875 177.65625 C 169.128906 184.625 167.582031 191.832031 167.15625 199.28125 L 167.15625 207.265625 C 167.15625 208.265625 167.15625 208.921875 167.484375 209.921875 C 168 215.0625 169.191406 220.039062 171.0625 224.851562 C 172.929688 229.667969 175.410156 234.140625 178.5 238.28125 C 182.46875 243.5625 186.75 247.53125 191.703125 250.84375 C 196.6875 254.171875 201.65625 256.5 206.953125 258.171875 C 212.265625 259.839844 217.238281 260.503906 221.875 260.171875 L 228.8125 260.171875 C 229.484375 260.171875 230.140625 259.84375 230.46875 259.84375 C 231.140625 259.84375 231.46875 259.515625 232.125 259.515625 C 233.125 259.1875 234.4375 258.84375 235.4375 258.515625 C 237.4375 257.84375 239.421875 256.859375 241.40625 256.1875 C 243.394531 255.1875 245.050781 254.1875 246.375 253.1875 C 246.703125 252.859375 247.375 252.515625 247.703125 252.1875 C 247.902344 252.035156 248.085938 251.867188 248.25 251.679688 C 248.414062 251.492188 248.558594 251.289062 248.683594 251.070312 C 248.808594 250.855469 248.910156 250.628906 248.988281 250.390625 C 249.070312 250.152344 249.125 249.910156 249.152344 249.660156 C 249.183594 249.414062 249.191406 249.164062 249.171875 248.914062 C 249.152344 248.664062 249.109375 248.421875 249.039062 248.179688 C 248.972656 247.941406 248.878906 247.707031 248.765625 247.484375 C 248.652344 247.261719 248.515625 247.054688 248.359375 246.859375 C 248.039062 246.535156 247.679688 246.265625 247.28125 246.050781 C 246.878906 245.835938 246.457031 245.6875 246.011719 245.597656 C 245.566406 245.511719 245.117188 245.488281 244.664062 245.535156 C 244.210938 245.585938 243.777344 245.695312 243.359375 245.875 L 243.390625 245.859375 C 243.0625 246.1875 242.71875 246.1875 242.0625 246.53125 C 240.8125 247.1875 239.425781 247.730469 237.90625 248.15625 L 237.75 248.1875 C 236.09375 248.515625 234.4375 249.1875 232.78125 249.515625 C 231.78125 249.515625 231.125 249.84375 230.140625 249.84375 L 223.171875 249.84375 C 222.828125 249.84375 222.171875 249.84375 221.84375 249.515625 C 217.949219 248.878906 214.191406 247.769531 210.578125 246.1875 C 206.742188 244.460938 203.316406 242.132812 200.296875 239.203125 C 196.992188 236.203125 194.230469 232.765625 192.015625 228.890625 C 189.78125 224.949219 188.34375 220.734375 187.703125 216.25 C 187.375 213.921875 187.03125 211.59375 187.375 209.265625 L 187.375 205.59375 C 187.375 204.265625 187.703125 203.265625 188.046875 201.9375 C 189.921875 191.25 195.015625 182 202.296875 175 L 202.3125 174.984375 C 204.296875 172.984375 206.296875 171.328125 208.625 170 C 210.949219 168.332031 213.265625 167 215.578125 166 C 217.890625 165 220.546875 164 223.203125 163.34375 C 225.796875 162.554688 228.449219 162.113281 231.15625 162.015625 C 232.484375 162.015625 233.796875 161.6875 235.140625 161.6875 L 239.109375 161.6875 C 243.566406 162.058594 247.9375 162.898438 252.214844 164.207031 C 256.492188 165.515625 260.582031 167.265625 264.484375 169.453125 C 275.015625 175.4375 283.90625 184.375 289.1875 195.296875 C 291.828125 200.625 293.828125 206.609375 294.828125 212.9375 C 295.15625 214.59375 295.15625 215.9375 295.5 217.59375 L 295.5 226.25 C 295.5 227.90625 295.171875 229.578125 295.171875 231.234375 C 294.84375 232.890625 294.84375 234.5625 294.5 236.21875 L 293.5 241.203125 C 293.171875 242.859375 291.515625 247.53125 290.515625 250.859375 C 289.515625 254.1875 284.875 263.171875 280.890625 268.5 C 276.910156 273.945312 272.324219 278.820312 267.128906 283.121094 C 261.9375 287.425781 256.292969 291.023438 250.203125 293.921875 L 249.703125 294.125 C 243.40625 296.78125 237.109375 299.109375 230.484375 300.109375 C 227.203125 300.800781 223.886719 301.132812 220.53125 301.109375 L 215.234375 301.109375 C 213.578125 301.109375 211.59375 301.109375 209.921875 300.78125 C 202.722656 300.121094 195.648438 298.789062 188.703125 296.78125 C 181.800781 294.800781 175.167969 292.140625 168.8125 288.796875 C 162.539062 285.394531 156.652344 281.414062 151.160156 276.855469 C 145.664062 272.300781 140.664062 267.253906 136.15625 261.71875 L 136 261.515625 C 131.621094 255.859375 127.757812 249.867188 124.40625 243.546875 C 121.230469 237.25 118.691406 230.710938 116.78125 223.921875 C 114.832031 217.234375 113.726562 210.414062 113.46875 203.453125 L 113.46875 192.984375 C 113.46875 189.65625 113.796875 186 114.46875 182.34375 C 114.796875 178.6875 115.46875 175.359375 116.125 171.703125 C 116.78125 168.046875 117.78125 164.71875 118.765625 161.0625 C 119.75 157.40625 123.078125 147.421875 126.0625 141.09375 C 132.03125 128.453125 139.65625 117.140625 148.609375 108.15625 C 150.921875 105.828125 153.25 103.828125 155.90625 101.828125 C 156.90625 100.828125 159.21875 98.828125 161.875 97.171875 C 164.515625 95.515625 167.1875 93.84375 170.15625 92.515625 C 171.484375 91.84375 172.796875 91.1875 174.46875 90.515625 C 175.140625 90.1875 175.796875 89.84375 176.796875 89.515625 C 177.46875 89.1875 178.125 88.84375 179.125 88.515625 C 182.109375 87.1875 185.09375 86.1875 188.078125 85.1875 C 188.75 84.859375 189.734375 84.859375 190.390625 84.515625 C 191.0625 84.171875 192.046875 84.1875 192.71875 83.84375 C 193.390625 83.5 195.703125 83.171875 197.359375 82.515625 C 198.03125 82.1875 199.015625 82.1875 199.6875 81.84375 C 200.359375 81.84375 201.34375 81.515625 202.015625 81.515625 C 202.6875 81.515625 203.671875 81.1875 204.328125 81.1875 L 206.96875 80.515625 C 207.640625 80.515625 208.625 80.1875 209.296875 80.1875 C 210.296875 80.1875 210.953125 79.859375 211.9375 79.859375 C 212.609375 79.859375 213.9375 79.53125 214.578125 79.53125 C 215.21875 79.53125 215.578125 79.53125 216.234375 79.203125 L 218.5625 79.203125 C 219.5625 79.203125 220.21875 79.203125 221.203125 78.875 L 234.796875 78.875 C 240.765625 79.203125 246.734375 79.875 252.375 80.875 C 263.601562 82.839844 274.285156 86.429688 284.421875 91.640625 C 293.703125 96.164062 302.261719 101.789062 310.09375 108.515625 C 310.421875 108.84375 311.0625 109.171875 311.390625 109.8125 C 311.71875 110.140625 312.390625 110.484375 312.71875 111.140625 C 313.71875 111.8125 314.375 112.796875 315.359375 113.46875 C 316.34375 114.140625 317.015625 115.125 318 115.796875 C 318.671875 116.796875 319.65625 117.453125 320.3125 118.453125 C 329.035156 127.4375 336.222656 137.515625 341.875 148.6875 L 342.203125 149.390625 C 342.53125 149.71875 342.53125 150.0625 342.875 150.71875 C 343.203125 151.046875 343.203125 151.390625 343.546875 152.046875 C 343.890625 152.703125 344.21875 153.703125 344.875 154.375 C 345.203125 155.046875 345.546875 156.03125 345.875 156.703125 C 346.203125 157.375 346.546875 158.359375 346.875 159.03125 C 348.203125 162.03125 349.1875 165.015625 350.1875 168.015625 C 351.84375 172.671875 352.828125 176.671875 353.828125 180 C 353.914062 180.332031 354.054688 180.636719 354.242188 180.925781 C 354.429688 181.210938 354.660156 181.457031 354.929688 181.667969 C 355.199219 181.878906 355.492188 182.039062 355.816406 182.152344 C 356.136719 182.265625 356.472656 182.324219 356.8125 182.328125 C 358.46875 182.328125 359.46875 181 359.46875 179.328125 C 359.140625 175.328125 359.140625 171.015625 358.796875 166.015625 L 358.859375 166.015625 C 358.152344 158.722656 356.9375 151.515625 355.21875 144.390625 C 352.75 135.453125 349.511719 126.800781 345.5 118.4375 C 340.859375 109.453125 335.21875 99.796875 327.59375 90.8125 C 324.609375 87.15625 321.28125 83.828125 317.96875 80.171875 C 323.28125 59.203125 311.65625 40.90625 311.65625 40.90625 C 291.4375 39.578125 278.84375 47.234375 274.203125 50.5625 C 273.53125 50.234375 272.546875 49.890625 271.875 49.5625 C 268.5625 48.234375 264.921875 46.90625 261.28125 45.5625 C 257.640625 44.5625 253.984375 43.234375 250.34375 42.5625 C 246.703125 41.5625 242.71875 40.90625 238.75 40.234375 C 238.078125 40.234375 237.421875 39.90625 236.75 39.90625 C 228.140625 11.96875 202.9375 0 202.9375 0 C 174.09375 18.640625 168.453125 43.59375 168.453125 43.59375 C 168.453125 43.59375 168.453125 44.265625 168.125 44.921875 C 166.46875 45.25 165.140625 45.921875 163.484375 46.25 C 161.484375 46.921875 159.171875 47.578125 157.171875 48.578125 C 155.1875 49.578125 152.859375 50.234375 150.859375 51.234375 C 146.578125 53.234375 142.59375 55.234375 138.28125 57.5625 C 133.71875 60.140625 129.921875 62.5625 126.28125 65.171875 L 126.6875 64.890625 C 126.308594 64.730469 125.976562 64.507812 125.6875 64.21875 C 86.890625 49.25 52.421875 67.21875 52.421875 67.21875 C 49.4375 108.796875 68.015625 134.75 71.65625 139.40625 C 70.65625 142.0625 70 144.390625 69.015625 147.0625 C 66.082031 156.242188 64.011719 165.609375 62.8125 175.171875 L 62.71875 176.015625 C 62.390625 177.34375 62.390625 179.015625 62.046875 180.34375 C 26.234375 197.984375 15.625 234.578125 15.625 234.578125 C 45.46875 269.1875 80.609375 271.1875 80.609375 271.1875 " fill-opacity="1" fill-rule="nonzero"/><path fill="#000000" d="M 178.53125 238.34375 L 178.484375 238.265625 L 178.421875 238.203125 Z M 323.515625 176.265625 L 323.671875 176.5625 L 323.765625 176.703125 Z M 323.515625 176.265625 " fill-opacity="1" fill-rule="nonzero"/></svg>