<svg xmlns="http://www.w3.org/2000/svg" xmlns:xlink="http://www.w3.org/1999/xlink" width="500" zoomAndPan="magnify" viewBox="0 0 375 374.999991" height="500" preserveAspectRatio="xMidYMid meet" version="1.0"><path fill="#000000" d="M 228.640625 199.820312 C 219.652344 199.820312 211.59375 203.796875 206.074219 210.058594 L 191.9375 200.0625 C 193.4375 195.933594 194.300781 191.503906 194.300781 186.863281 C 194.300781 182.304688 193.46875 177.949219 192.015625 173.882812 L 206.125 163.992188 C 211.640625 170.222656 219.675781 174.175781 228.640625 174.175781 C 245.226562 174.175781 258.726562 160.699219 258.726562 144.128906 C 258.726562 127.558594 245.226562 114.082031 228.640625 114.082031 C 212.050781 114.082031 198.550781 127.558594 198.550781 144.128906 C 198.550781 147.09375 199 149.953125 199.804688 152.664062 L 185.6875 162.558594 C 179.789062 155.253906 171.300781 150.152344 161.625 148.59375 L 161.625 131.601562 C 175.253906 128.742188 185.523438 116.652344 185.523438 102.199219 C 185.523438 85.628906 172.023438 72.152344 155.4375 72.152344 C 138.847656 72.152344 125.347656 85.628906 125.347656 102.199219 C 125.347656 116.457031 135.351562 128.402344 148.707031 131.464844 L 148.707031 148.675781 C 130.480469 151.871094 116.574219 167.757812 116.574219 186.863281 C 116.574219 206.0625 130.617188 222.007812 148.976562 225.09375 L 148.976562 243.269531 C 135.484375 246.234375 125.347656 258.25 125.347656 272.601562 C 125.347656 289.171875 138.847656 302.652344 155.4375 302.652344 C 172.023438 302.652344 185.523438 289.171875 185.523438 272.601562 C 185.523438 258.25 175.386719 246.234375 161.894531 243.269531 L 161.894531 225.09375 C 164.199219 224.707031 166.449219 224.117188 168.648438 223.324219 C 170.84375 222.53125 172.953125 221.546875 174.972656 220.375 C 176.992188 219.199219 178.890625 217.855469 180.667969 216.339844 C 182.445312 214.824219 184.074219 213.164062 185.550781 211.355469 L 199.785156 221.417969 C 198.992188 224.101562 198.550781 226.933594 198.550781 229.867188 C 198.550781 246.4375 212.050781 259.917969 228.640625 259.917969 C 245.226562 259.917969 258.726562 246.4375 258.726562 229.867188 C 258.726562 213.296875 245.226562 199.820312 228.640625 199.820312 M 228.640625 129.558594 C 236.683594 129.558594 243.226562 136.097656 243.226562 144.128906 C 243.226562 152.160156 236.683594 158.699219 228.640625 158.699219 C 220.59375 158.699219 214.050781 152.160156 214.050781 144.128906 C 214.050781 136.097656 220.59375 129.558594 228.640625 129.558594 M 140.847656 102.199219 C 140.847656 94.167969 147.390625 87.632812 155.4375 87.632812 C 163.480469 87.632812 170.023438 94.167969 170.023438 102.199219 C 170.023438 110.230469 163.480469 116.769531 155.4375 116.769531 C 147.390625 116.769531 140.847656 110.230469 140.847656 102.199219 M 170.023438 272.601562 C 170.023438 280.636719 163.480469 287.171875 155.4375 287.171875 C 147.390625 287.171875 140.847656 280.636719 140.847656 272.601562 C 140.847656 264.570312 147.390625 258.035156 155.4375 258.035156 C 163.480469 258.035156 170.023438 264.570312 170.023438 272.601562 M 155.433594 207.183594 C 144.214844 207.183594 135.089844 198.070312 135.089844 186.863281 C 135.089844 175.660156 144.214844 166.542969 155.433594 166.542969 C 166.652344 166.542969 175.78125 175.660156 175.78125 186.863281 C 175.78125 198.070312 166.652344 207.183594 155.433594 207.183594 M 228.640625 244.4375 C 220.59375 244.4375 214.050781 237.898438 214.050781 229.867188 C 214.050781 221.835938 220.59375 215.300781 228.640625 215.300781 C 236.683594 215.300781 243.226562 221.835938 243.226562 229.867188 C 243.226562 237.898438 236.683594 244.4375 228.640625 244.4375 " fill-opacity="1" fill-rule="nonzero"/></svg>