<svg xmlns="http://www.w3.org/2000/svg" xmlns:xlink="http://www.w3.org/1999/xlink" width="500" zoomAndPan="magnify" viewBox="0 0 375 374.999991" height="500" preserveAspectRatio="xMidYMid meet" version="1.0"><path fill="#000000" d="M 156.453125 214.65625 L 121.234375 220.703125 C 122.5 224.25 124.046875 227.675781 125.867188 230.972656 C 127.6875 234.269531 129.761719 237.402344 132.089844 240.363281 C 134.417969 243.328125 136.96875 246.082031 139.742188 248.632812 C 142.515625 251.183594 145.476562 253.492188 148.625 255.5625 L 162.140625 222.828125 C 162.460938 222.289062 162.648438 221.707031 162.710938 221.085938 C 162.769531 220.460938 162.695312 219.855469 162.484375 219.265625 C 162.140625 216.453125 159.296875 214.65625 156.453125 214.65625 M 169.96875 169.125 C 173.171875 169.125 176.015625 166.640625 176.015625 163.4375 L 177.796875 127.859375 L 170.671875 129.28125 C 164.433594 130.742188 158.503906 133.015625 152.882812 136.097656 C 147.265625 139.179688 142.164062 142.960938 137.578125 147.4375 L 167.109375 168.421875 C 168.1875 168.765625 168.90625 169.125 169.96875 169.125 M 154.3125 192.25 C 154.5625 191.960938 154.785156 191.648438 154.972656 191.316406 C 155.164062 190.984375 155.316406 190.632812 155.433594 190.269531 C 155.554688 189.90625 155.636719 189.53125 155.679688 189.152344 C 155.722656 188.769531 155.726562 188.390625 155.695312 188.007812 C 155.664062 187.625 155.59375 187.25 155.484375 186.882812 C 155.375 186.515625 155.230469 186.160156 155.054688 185.824219 C 154.875 185.484375 154.664062 185.167969 154.417969 184.871094 C 154.175781 184.574219 153.90625 184.304688 153.609375 184.0625 L 127.28125 160.578125 C 125.351562 163.832031 123.675781 167.210938 122.257812 170.714844 C 120.835938 174.222656 119.691406 177.816406 118.816406 181.496094 C 117.9375 185.175781 117.34375 188.898438 117.035156 192.667969 C 116.722656 196.4375 116.695312 200.210938 116.953125 203.984375 L 151.46875 194.03125 C 152.890625 193.671875 153.609375 193.3125 154.3125 192.25 M 177.078125 204.703125 L 186.703125 209.328125 L 196.296875 204.703125 L 198.796875 194.375 L 192.03125 185.84375 L 181.359375 185.84375 L 174.59375 194.375 Z M 198.078125 166.640625 C 199.859375 169.125 203.40625 169.484375 205.890625 168.0625 L 235.0625 147.4375 C 232.375 144.757812 229.484375 142.324219 226.382812 140.136719 C 223.285156 137.945312 220.023438 136.035156 216.601562 134.398438 C 213.175781 132.761719 209.640625 131.425781 205.992188 130.386719 C 202.34375 129.351562 198.632812 128.628906 194.859375 128.21875 L 197 164.15625 C 197.003906 165.136719 197.363281 165.964844 198.078125 166.640625 " fill-opacity="1" fill-rule="nonzero"/><path fill="#000000" d="M 342.875 220.359375 L 315.84375 104.015625 C 314.078125 98.328125 309.796875 93.703125 304.453125 90.859375 L 195.953125 38.90625 C 193.109375 37.484375 189.90625 37.125 187.0625 37.125 C 184.21875 37.125 181.015625 37.125 178.171875 37.828125 L 69.640625 90.140625 C 68.304688 90.75 67.054688 91.507812 65.894531 92.40625 C 64.730469 93.304688 63.6875 94.328125 62.761719 95.46875 C 61.835938 96.609375 61.054688 97.839844 60.414062 99.164062 C 59.773438 100.484375 59.289062 101.863281 58.96875 103.296875 L 32.28125 220.359375 C 31.21875 226.40625 32.640625 232.453125 36.1875 237.4375 L 111.265625 330.296875 C 115.53125 334.5625 121.578125 337.421875 127.625 337.78125 L 247.171875 337.78125 C 253.578125 338.484375 259.625 335.640625 263.546875 330.296875 L 338.625 237.4375 C 342.171875 232.453125 343.59375 226.40625 342.875 220.359375 M 298.421875 228.1875 C 297.703125 228.1875 297.359375 228.1875 296.640625 227.828125 C 296.296875 227.46875 296.296875 227.46875 295.9375 227.46875 C 295.21875 227.46875 294.875 227.125 294.5 227.125 C 293.078125 226.765625 292.015625 226.0625 290.59375 225.34375 C 289.820312 225.285156 289.109375 225.050781 288.453125 224.640625 L 288.109375 224.640625 C 284.414062 223.210938 280.617188 222.144531 276.71875 221.4375 L 276.375 221.4375 C 275.285156 221.410156 274.335938 221.765625 273.53125 222.5 C 273.53125 222.5 273.53125 222.859375 273.171875 222.859375 L 270.3125 222.484375 C 268.691406 227.503906 266.632812 232.339844 264.144531 236.992188 C 261.652344 241.644531 258.765625 246.035156 255.484375 250.167969 C 252.203125 254.296875 248.578125 258.101562 244.609375 261.582031 C 240.644531 265.0625 236.398438 268.160156 231.875 270.875 L 232.9375 273.71875 C 232.9375 273.71875 232.59375 273.71875 232.59375 274.0625 C 232.265625 274.597656 232.070312 275.179688 232.007812 275.804688 C 231.949219 276.429688 232.027344 277.035156 232.25 277.625 C 233.671875 281.1875 235.453125 284.734375 237.9375 287.9375 L 237.9375 288.640625 C 238.523438 289.144531 238.996094 289.738281 239.359375 290.421875 C 240.398438 291.464844 241.226562 292.652344 241.84375 293.984375 C 242.203125 294.328125 242.5625 294.6875 242.5625 295.046875 C 242.5625 295.046875 242.90625 295.046875 242.90625 295.390625 C 243.558594 297.136719 243.675781 298.917969 243.265625 300.734375 C 243.050781 301.589844 242.660156 302.363281 242.101562 303.046875 C 241.539062 303.730469 240.859375 304.261719 240.0625 304.640625 C 239 304.984375 238.28125 305.34375 237.203125 305.34375 C 236.5 305.316406 235.816406 305.203125 235.144531 304.992188 C 234.472656 304.785156 233.839844 304.496094 233.246094 304.121094 C 232.652344 303.746094 232.117188 303.300781 231.640625 302.785156 C 231.164062 302.269531 230.761719 301.699219 230.4375 301.078125 C 230.09375 301.078125 230.09375 300.734375 230.09375 300.734375 C 229.75 300.375 229.75 300.03125 229.375 299.671875 C 228.671875 298.609375 228.3125 297.1875 227.953125 295.765625 L 227.234375 293.625 L 227.234375 293.28125 C 226.046875 289.457031 224.503906 285.777344 222.609375 282.25 C 221.90625 281.210938 220.960938 280.496094 219.765625 280.109375 C 219.765625 279.75 219.765625 279.75 219.40625 279.75 L 217.984375 277.265625 C 214.421875 278.328125 210.5 279.75 206.59375 280.46875 C 200.1875 282.25 193.78125 282.953125 187.390625 282.953125 C 176.714844 283.015625 166.394531 281.121094 156.4375 277.265625 L 155.015625 280.109375 C 155.015625 280.46875 155.015625 280.46875 154.65625 280.46875 C 153.460938 280.855469 152.515625 281.570312 151.8125 282.609375 C 150.03125 286.171875 148.25 289.71875 147.1875 293.640625 L 146.484375 295.78125 C 146.125 297.203125 145.421875 298.265625 145.0625 299.6875 C 144.71875 300.046875 144.359375 300.390625 144.359375 300.75 C 144 300.75 144 301.09375 144 301.09375 C 143.675781 301.714844 143.273438 302.285156 142.796875 302.800781 C 142.320312 303.316406 141.785156 303.761719 141.191406 304.136719 C 140.597656 304.511719 139.964844 304.800781 139.292969 305.007812 C 138.621094 305.21875 137.9375 305.332031 137.234375 305.359375 C 136.355469 305.300781 135.527344 305.066406 134.75 304.65625 C 134.351562 304.421875 133.980469 304.152344 133.632812 303.851562 C 133.289062 303.546875 132.972656 303.210938 132.6875 302.847656 C 132.40625 302.484375 132.15625 302.097656 131.945312 301.691406 C 131.734375 301.28125 131.566406 300.855469 131.433594 300.410156 C 131.304688 299.96875 131.214844 299.519531 131.167969 299.0625 C 131.125 298.601562 131.121094 298.144531 131.160156 297.683594 C 131.199219 297.226562 131.285156 296.773438 131.410156 296.332031 C 131.535156 295.886719 131.699219 295.460938 131.90625 295.046875 C 132.265625 295.046875 132.265625 294.6875 132.265625 294.6875 C 132.609375 294.328125 132.609375 293.984375 132.96875 293.625 C 134.03125 292.203125 134.75 290.78125 135.453125 290.0625 C 136.15625 289.34375 136.515625 289 136.875 288.28125 L 136.875 287.921875 C 139.121094 284.679688 141.019531 281.242188 142.5625 277.609375 C 142.769531 277.019531 142.84375 276.410156 142.78125 275.789062 C 142.714844 275.164062 142.523438 274.585938 142.203125 274.046875 C 142.203125 274.046875 141.859375 274.046875 141.859375 273.703125 L 143.640625 271.203125 C 140.21875 269.398438 137.015625 267.261719 134.03125 264.796875 C 130.625 262.15625 127.4375 259.277344 124.464844 256.160156 C 121.492188 253.042969 118.769531 249.71875 116.296875 246.191406 C 113.824219 242.664062 111.628906 238.96875 109.714844 235.109375 C 107.796875 231.253906 106.179688 227.273438 104.859375 223.171875 L 101.65625 223.515625 C 101.65625 223.515625 101.65625 223.171875 101.296875 223.171875 C 100.492188 222.4375 99.542969 222.082031 98.453125 222.109375 L 98.109375 222.109375 C 94.09375 222.792969 90.183594 223.863281 86.375 225.3125 L 86 225.3125 C 85.296875 225.3125 84.578125 225.671875 83.859375 226.03125 C 82.796875 226.375 81.375 227.09375 79.953125 227.453125 C 79.609375 227.453125 78.53125 227.109375 78.53125 227.453125 C 78.53125 227.8125 78.53125 227.8125 78.171875 227.8125 C 77.46875 228.171875 77.109375 228.171875 76.390625 228.171875 C 75.996094 228.214844 75.601562 228.21875 75.207031 228.191406 C 74.8125 228.160156 74.421875 228.097656 74.039062 228 C 73.65625 227.898438 73.28125 227.765625 72.921875 227.601562 C 72.5625 227.4375 72.21875 227.238281 71.894531 227.011719 C 71.570312 226.785156 71.269531 226.53125 70.992188 226.25 C 70.710938 225.96875 70.460938 225.664062 70.234375 225.335938 C 70.011719 225.011719 69.816406 224.667969 69.652344 224.304688 C 69.492188 223.945312 69.363281 223.570312 69.265625 223.1875 C 69.175781 222.730469 69.132812 222.269531 69.136719 221.804688 C 69.140625 221.339844 69.191406 220.882812 69.285156 220.425781 C 69.382812 219.972656 69.523438 219.53125 69.707031 219.105469 C 69.890625 218.679688 70.113281 218.273438 70.378906 217.890625 C 70.644531 217.511719 70.945312 217.160156 71.28125 216.839844 C 71.617188 216.515625 71.980469 216.230469 72.375 215.984375 C 72.765625 215.734375 73.179688 215.527344 73.613281 215.363281 C 74.046875 215.195312 74.496094 215.074219 74.953125 215 C 75.3125 214.640625 75.3125 214.640625 75.671875 214.640625 C 76.375 214.640625 76.734375 214.296875 77.09375 214.296875 C 78.515625 214.296875 79.9375 213.9375 81.359375 213.9375 C 82.0625 213.59375 82.78125 213.59375 83.5 213.59375 C 87.601562 213.277344 91.632812 212.566406 95.59375 211.453125 C 96.65625 210.734375 97.734375 210.03125 98.09375 208.953125 C 98.09375 208.953125 98.4375 208.953125 98.4375 208.609375 L 101.28125 207.890625 C 98.078125 187.609375 102.703125 166.984375 113.734375 149.546875 C 114.078125 148.84375 114.4375 148.484375 114.796875 147.765625 L 112.75 145.703125 L 112.6875 146 L 112.6875 145.640625 L 112.75 145.703125 C 112.90625 144.6875 112.265625 143.4375 111.625 142.796875 C 108.78125 139.953125 105.21875 137.8125 101.65625 135.6875 L 99.53125 134.609375 C 98.191406 133.964844 96.882812 133.253906 95.609375 132.484375 C 95.265625 132.484375 94.546875 131.78125 94.546875 131.78125 C 94.546875 131.78125 94.546875 131.421875 94.203125 131.421875 C 93.855469 131.121094 93.535156 130.792969 93.242188 130.4375 C 92.953125 130.078125 92.699219 129.699219 92.476562 129.296875 C 92.253906 128.894531 92.070312 128.472656 91.925781 128.039062 C 91.777344 127.601562 91.671875 127.15625 91.609375 126.699219 C 91.542969 126.246094 91.519531 125.785156 91.535156 125.328125 C 91.550781 124.867188 91.609375 124.414062 91.707031 123.964844 C 91.808594 123.515625 91.945312 123.078125 92.125 122.652344 C 92.300781 122.226562 92.515625 121.824219 92.765625 121.4375 C 93.828125 119.65625 95.609375 118.953125 97.75 118.953125 C 99.609375 118.996094 101.269531 119.589844 102.734375 120.734375 L 103.09375 121.09375 C 103.4375 121.4375 103.796875 121.4375 104.15625 121.796875 C 105.21875 122.875 105.9375 123.9375 107 125 C 107.359375 125.34375 108.0625 125.703125 108.421875 126.421875 C 110.90625 129.265625 114.109375 132.109375 117.3125 134.609375 C 118.015625 134.953125 118.734375 135.3125 119.453125 135.3125 C 120.15625 135.3125 120.515625 134.953125 120.875 134.953125 L 121.234375 134.953125 L 123.375 136.375 C 126.292969 133.257812 129.425781 130.378906 132.777344 127.734375 C 136.128906 125.089844 139.65625 122.710938 143.367188 120.601562 C 147.078125 118.488281 150.925781 116.667969 154.910156 115.136719 C 158.894531 113.605469 162.972656 112.382812 167.140625 111.46875 C 171.40625 110.75 175.3125 110.046875 179.234375 109.6875 L 179.59375 106.84375 L 179.59375 106.140625 C 180.65625 105.4375 181.015625 104.359375 181.375 103.296875 C 181.375 99.03125 181.375 95.109375 180.671875 91.203125 L 180.671875 90.84375 C 180.671875 90.140625 180.671875 89.421875 180.3125 88.703125 C 179.898438 87.3125 179.664062 85.890625 179.609375 84.4375 L 179.609375 82.671875 C 179.609375 80.890625 180.3125 79.109375 181.75 77.6875 C 183.53125 75.90625 185.65625 74.84375 187.796875 75.203125 C 188.234375 75.265625 188.664062 75.363281 189.082031 75.507812 C 189.5 75.648438 189.902344 75.828125 190.289062 76.046875 C 190.671875 76.261719 191.035156 76.515625 191.371094 76.800781 C 191.710938 77.085938 192.015625 77.398438 192.296875 77.742188 C 192.574219 78.085938 192.816406 78.453125 193.027344 78.84375 C 193.234375 79.234375 193.40625 79.636719 193.539062 80.058594 C 193.671875 80.480469 193.761719 80.914062 193.8125 81.351562 C 193.867188 81.789062 193.875 82.230469 193.84375 82.671875 L 193.84375 84.8125 C 193.484375 86.234375 193.484375 87.65625 193.140625 89.078125 C 193.140625 89.78125 192.78125 90.5 192.78125 91.203125 L 192.78125 91.5625 C 192.03125 95.828125 192.03125 99.75 192.03125 103.65625 C 192.390625 104.71875 192.734375 105.78125 193.8125 106.5 L 193.8125 106.140625 L 194.171875 108.984375 C 198.359375 109.421875 202.5 110.144531 206.585938 111.15625 C 210.675781 112.167969 214.671875 113.453125 218.582031 115.015625 C 222.492188 116.582031 226.277344 118.40625 229.933594 120.496094 C 233.589844 122.582031 237.085938 124.914062 240.421875 127.484375 C 243.28125 130.328125 246.46875 133.171875 249.3125 136.015625 L 252.171875 134.234375 L 252.515625 134.234375 C 252.859375 134.59375 253.578125 134.59375 253.9375 134.59375 C 254.65625 134.59375 255.359375 134.234375 256.078125 133.890625 C 259.28125 131.75 262.484375 128.90625 264.96875 126.0625 C 265.3125 125.703125 266.03125 125.34375 266.390625 124.640625 C 267.109375 123.578125 268.171875 122.5 269.25 121.4375 C 269.59375 121.4375 269.953125 121.09375 270.3125 120.734375 L 270.65625 120.375 C 272.121094 119.246094 273.777344 118.652344 275.625 118.59375 C 277.40625 118.59375 279.546875 119.65625 280.609375 121.09375 C 283.09375 124.296875 282.375 128.5625 279.1875 131.046875 C 279.1875 131.40625 279.53125 131.40625 279.1875 131.765625 C 278.828125 132.109375 278.46875 132.109375 278.125 132.46875 C 276.6875 133.171875 275.625 133.890625 274.203125 134.609375 L 272.0625 135.671875 C 268.507812 137.714844 265.183594 140.085938 262.09375 142.78125 C 261.390625 143.5 261.03125 144.921875 261.03125 145.984375 L 261.03125 146.34375 L 258.90625 148.484375 C 264.59375 157.375 268.875 167.34375 271.359375 177.65625 C 273.5 187.96875 274.203125 198.640625 272.78125 208.953125 L 275.625 209.671875 C 275.847656 210.242188 276.179688 210.746094 276.613281 211.175781 C 277.050781 211.609375 277.550781 211.9375 278.125 212.15625 C 282.03125 213.21875 286.296875 213.9375 290.203125 214.296875 L 290.5625 214.296875 C 291.25 214.582031 291.960938 214.695312 292.703125 214.640625 C 294.125 214.640625 295.546875 214.640625 296.953125 215 C 297.671875 215 298.390625 215 298.390625 215.359375 C 298.390625 215.703125 298.734375 215.703125 299.09375 215.703125 C 299.953125 215.914062 300.757812 216.25 301.511719 216.710938 C 302.265625 217.175781 302.929688 217.742188 303.503906 218.414062 C 304.078125 219.085938 304.535156 219.828125 304.875 220.644531 C 305.21875 221.457031 305.425781 222.308594 305.5 223.1875 C 305.230469 223.914062 304.863281 224.582031 304.390625 225.195312 C 303.917969 225.808594 303.367188 226.339844 302.738281 226.785156 C 302.105469 227.230469 301.421875 227.574219 300.683594 227.8125 C 299.949219 228.050781 299.195312 228.175781 298.421875 228.1875 " fill-opacity="1" fill-rule="nonzero"/><path fill="#000000" d="M 188.828125 229.96875 C 188.25 229.632812 187.632812 229.410156 186.972656 229.300781 C 186.316406 229.191406 185.660156 229.203125 185.003906 229.332031 C 184.347656 229.464844 183.738281 229.707031 183.171875 230.0625 C 182.605469 230.414062 182.121094 230.859375 181.71875 231.390625 L 164.28125 263.0625 C 171.40625 265.1875 179.234375 266.625 186.703125 266.625 C 192.03125 266.625 197.015625 265.921875 202 264.84375 C 204.484375 264.140625 206.625 263.78125 208.765625 263.421875 L 191.6875 232.46875 C 190.609375 231.390625 189.890625 230.671875 188.828125 229.96875 M 245.765625 160.578125 L 219.078125 184.765625 C 218.382812 185.472656 217.910156 186.308594 217.65625 187.265625 C 216.9375 190.46875 218.71875 193.671875 221.921875 194.375 L 255.71875 203.984375 C 256.476562 196.429688 256 188.957031 254.28125 181.5625 C 252.558594 174.113281 249.71875 167.121094 245.765625 160.578125 M 213.375 215.015625 C 212.75 215.296875 212.191406 215.679688 211.703125 216.160156 C 211.214844 216.640625 210.824219 217.191406 210.53125 217.808594 C 210.238281 218.429688 210.058594 219.082031 209.996094 219.765625 C 209.9375 220.445312 209.996094 221.117188 210.171875 221.78125 L 224.0625 255.234375 C 228.367188 252.511719 232.320312 249.347656 235.921875 245.75 C 239.519531 242.148438 242.683594 238.195312 245.40625 233.890625 C 248.25 229.984375 250.375 225.34375 252.171875 220.375 L 216.59375 214.328125 C 215.480469 214.367188 214.40625 214.59375 213.375 215.015625 " fill-opacity="1" fill-rule="nonzero"/></svg>