<svg xmlns="http://www.w3.org/2000/svg" xmlns:xlink="http://www.w3.org/1999/xlink" width="500" zoomAndPan="magnify" viewBox="0 0 375 374.999991" height="500" preserveAspectRatio="xMidYMid meet" version="1.0"><path fill="#000000" d="M 307.8125 275 C 306.25 271.875 304.6875 268.75 304.6875 265.625 C 304.6875 259.375 301.5625 254.6875 296.875 250 C 295.3125 248.4375 292.1875 246.875 290.625 246.875 C 300 218.75 285.9375 190.625 270.3125 170.3125 C 257.8125 151.5625 239.0625 137.5 240.625 112.5 C 240.625 82.8125 243.75 28.125 189.0625 32.8125 C 132.8125 35.9375 148.4375 93.75 146.875 114.0625 C 146.875 131.25 139.0625 148.4375 126.5625 162.5 C 123.4375 165.625 120.3125 170.3125 118.75 173.4375 C 103.125 192.1875 95.3125 217.1875 95.3125 240.625 C 92.1875 243.75 89.0625 246.875 87.5 250 C 85.9375 251.5625 84.375 253.125 84.375 254.6875 C 82.8125 256.25 79.6875 257.8125 76.5625 259.375 C 70.3125 260.9375 65.625 264.0625 62.5 270.3125 C 60.9375 275 59.375 281.25 60.9375 287.5 C 62.5 290.625 62.5 293.75 60.9375 298.4375 C 57.8125 304.6875 57.8125 312.5 60.9375 320.3125 C 65.625 326.5625 73.4375 328.125 84.375 329.6875 C 92.1875 329.6875 101.5625 332.8125 109.375 335.9375 C 117.1875 340.625 126.5625 343.75 135.9375 343.75 C 140.625 343.75 146.875 342.1875 151.5625 340.625 C 156.25 337.5 159.375 334.375 160.9375 329.6875 C 167.1875 329.6875 176.5625 326.5625 187.5 326.5625 C 196.875 326.5625 206.25 329.6875 218.75 328.125 C 218.75 329.6875 218.75 331.25 220.3125 332.8125 C 223.4375 340.625 231.25 346.875 240.625 348.4375 L 243.75 348.4375 C 256.25 346.875 268.75 340.625 276.5625 331.25 C 282.8125 325 290.625 320.3125 298.4375 317.1875 C 307.8125 312.5 314.0625 309.375 315.625 301.5625 C 317.1875 290.625 314.0625 284.375 307.8125 275 M 200 75 C 209.375 76.5625 217.1875 84.375 215.625 93.75 C 215.625 98.4375 214.0625 103.125 210.9375 107.8125 L 209.375 107.8125 C 206.25 106.25 204.6875 106.25 203.125 104.6875 C 204.6875 103.125 204.6875 100 206.25 96.875 C 206.25 90.625 203.125 85.9375 200 85.9375 C 195.3125 85.9375 192.1875 90.625 192.1875 96.875 L 192.1875 98.4375 C 190.625 96.875 187.5 96.875 185.9375 95.3125 L 185.9375 93.75 C 184.375 85.9375 190.625 76.5625 200 75 M 195.3125 106.25 C 196.875 107.8125 200 109.375 201.5625 109.375 C 203.125 109.375 206.25 110.9375 207.8125 112.5 C 210.9375 114.0625 214.0625 115.625 214.0625 120.3125 C 214.0625 125 209.375 129.6875 200 132.8125 C 196.875 134.375 195.3125 134.375 193.75 135.9375 C 189.0625 139.0625 184.375 140.625 178.125 140.625 C 173.4375 140.625 168.75 137.5 165.625 134.375 C 164.0625 132.8125 162.5 131.25 159.375 129.6875 C 157.8125 128.125 154.6875 125 153.125 120.3125 C 153.125 118.75 154.6875 117.1875 156.25 115.625 C 160.9375 112.5 162.5 110.9375 164.0625 109.375 L 165.625 107.8125 C 168.75 103.125 175 100 181.25 100 C 185.9375 101.5625 190.625 103.125 195.3125 106.25 M 162.5 78.125 C 168.75 78.125 173.4375 84.375 175 95.3125 L 175 98.4375 C 173.4375 98.4375 170.3125 100 168.75 101.5625 L 168.75 98.4375 C 168.75 93.75 165.625 89.0625 162.5 90.625 C 159.375 90.625 157.8125 95.3125 157.8125 100 C 157.8125 103.125 159.375 104.6875 160.9375 106.25 C 160.9375 106.25 159.375 107.8125 157.8125 107.8125 C 154.6875 104.6875 151.5625 100 151.5625 95.3125 C 151.5625 85.9375 156.25 78.125 162.5 78.125 M 146.875 329.6875 C 135.9375 334.375 121.875 332.8125 112.5 326.5625 C 103.125 321.875 95.3125 320.3125 84.375 320.3125 C 76.5625 318.75 68.75 318.75 67.1875 315.625 C 65.625 312.5 65.625 307.8125 68.75 300 C 70.3125 295.3125 70.3125 290.625 68.75 285.9375 C 67.1875 281.25 67.1875 278.125 68.75 273.4375 C 70.3125 268.75 73.4375 267.1875 78.125 265.625 C 82.8125 264.0625 85.9375 262.5 89.0625 259.375 C 90.625 257.8125 92.1875 256.25 93.75 253.125 C 98.4375 246.875 101.5625 243.75 106.25 243.75 C 115.625 245.3125 123.4375 259.375 129.6875 273.4375 C 132.8125 278.125 135.9375 284.375 140.625 289.0625 C 146.875 296.875 154.6875 307.8125 154.6875 314.0625 C 154.6875 321.875 151.5625 326.5625 146.875 329.6875 M 223.4375 295.3125 C 223.4375 296.875 223.4375 296.875 221.875 298.4375 C 203.125 312.5 178.125 314.0625 157.8125 303.125 L 148.4375 289.0625 C 162.5 287.5 159.375 268.75 129.6875 250 C 98.4375 229.6875 120.3125 192.1875 131.25 175 C 132.8125 173.4375 132.8125 175 126.5625 187.5 C 121.875 196.875 112.5 220.3125 125 237.5 C 125 225 128.125 212.5 132.8125 200 C 143.75 179.6875 151.5625 156.25 156.25 132.8125 C 157.8125 134.375 157.8125 134.375 159.375 134.375 C 160.9375 135.9375 162.5 137.5 164.0625 137.5 C 167.1875 142.1875 173.4375 143.75 178.125 143.75 L 179.6875 143.75 C 185.9375 143.75 192.1875 142.1875 196.875 137.5 C 198.4375 135.9375 200 134.375 203.125 134.375 C 207.8125 132.8125 212.5 129.6875 217.1875 125 C 223.4375 145.3125 229.6875 164.0625 239.0625 181.25 C 245.3125 193.75 250 206.25 253.125 220.3125 C 257.8125 220.3125 264.0625 221.875 268.75 225 C 281.25 231.25 285.9375 235.9375 284.375 243.75 L 281.25 243.75 C 281.25 239.0625 278.125 234.375 267.1875 229.6875 C 256.25 225 246.875 225 243.75 235.9375 C 242.1875 235.9375 240.625 237.5 239.0625 237.5 C 226.5625 243.75 226.5625 260.9375 225 278.125 C 226.5625 284.375 225 289.0625 223.4375 295.3125 M 295.3125 304.6875 C 285.9375 307.8125 278.125 314.0625 271.875 321.875 C 265.625 331.25 254.6875 337.5 242.1875 335.9375 C 235.9375 335.9375 229.6875 331.25 228.125 325 C 226.5625 315.625 226.5625 306.25 231.25 296.875 C 232.8125 290.625 234.375 285.9375 235.9375 279.6875 C 237.5 260.9375 237.5 250 245.3125 245.3125 C 245.3125 253.125 250 257.8125 256.25 260.9375 C 264.0625 260.9375 271.875 259.375 278.125 253.125 L 281.25 253.125 C 285.9375 253.125 289.0625 253.125 292.1875 256.25 C 295.3125 259.375 296.875 264.0625 296.875 267.1875 C 296.875 271.875 300 276.5625 301.5625 281.25 C 309.375 289.0625 309.375 293.75 309.375 295.3125 C 307.8125 298.4375 301.5625 301.5625 295.3125 304.6875 M 154.6875 117.1875 C 153.125 117.1875 153.125 117.1875 153.125 118.75 C 153.125 118.75 153.125 120.3125 154.6875 120.3125 C 156.25 120.3125 156.25 121.875 156.25 121.875 C 160.9375 128.125 168.75 131.25 178.125 132.8125 C 185.9375 131.25 193.75 129.6875 201.5625 123.4375 L 210.9375 118.75 C 212.5 118.75 212.5 117.1875 212.5 117.1875 C 212.5 115.625 212.5 115.625 210.9375 115.625 C 207.8125 117.1875 203.125 118.75 200 120.3125 C 193.75 125 185.9375 128.125 178.125 128.125 C 170.3125 128.125 164.0625 123.4375 159.375 118.75 C 157.8125 118.75 156.25 117.1875 154.6875 117.1875 " fill-opacity="1" fill-rule="nonzero"/></svg>