<svg xmlns="http://www.w3.org/2000/svg" xmlns:xlink="http://www.w3.org/1999/xlink" width="500" zoomAndPan="magnify" viewBox="0 0 375 374.999991" height="500" preserveAspectRatio="xMidYMid meet" version="1.0"><defs><clipPath id="df47551d26"><path d="M 3.515625 76.535156 L 371.765625 76.535156 L 371.765625 298.535156 L 3.515625 298.535156 Z M 3.515625 76.535156 " clip-rule="nonzero"/></clipPath></defs><g clip-path="url(#df47551d26)"><path fill="#000000" d="M 90.441406 134.433594 L 159.875 134.433594 L 159.875 139.949219 L 96.804688 139.949219 L 96.804688 181.460938 L 156.113281 181.460938 L 156.113281 186.980469 L 96.804688 186.980469 L 96.804688 232.558594 L 160.59375 232.558594 L 160.59375 238.078125 L 90.441406 238.078125 Z M 166.09375 134.433594 L 173.46875 134.433594 L 206.164062 180.011719 L 239.574219 134.433594 L 285.019531 76.535156 L 210.355469 184.804688 L 248.835938 238.078125 L 241.164062 238.078125 L 206.164062 189.589844 L 171.011719 238.078125 L 163.492188 238.078125 L 202.25 184.804688 Z M 251.582031 139.949219 L 251.582031 134.433594 L 330.707031 134.433594 L 330.707031 139.949219 L 294.253906 139.949219 L 294.253906 238.078125 L 287.890625 238.078125 L 287.890625 139.949219 L 251.582031 139.945312 Z M 3.582031 134.433594 L 11.539062 134.433594 L 121.238281 298.523438 L 75.90625 238.082031 L 10.238281 142.273438 L 9.949219 238.082031 L 3.585938 238.082031 L 3.585938 134.433594 Z M 330.058594 230.902344 C 328.765625 230.902344 327.785156 229.886719 327.785156 228.585938 C 327.785156 227.285156 328.765625 226.28125 330.058594 226.28125 C 331.375 226.28125 332.335938 227.285156 332.335938 228.585938 C 332.335938 229.886719 331.375 230.902344 330.058594 230.902344 Z M 336.3125 224.820312 L 339.722656 224.820312 C 339.765625 226.667969 341.117188 227.902344 343.09375 227.902344 C 345.308594 227.902344 346.558594 226.574219 346.558594 224.082031 L 346.558594 208.277344 L 350.03125 208.277344 L 350.03125 224.09375 C 350.03125 228.585938 347.429688 231.175781 343.128906 231.175781 C 339.089844 231.175781 336.3125 228.664062 336.3125 224.820312 Z M 354.570312 224.621094 L 358.003906 224.621094 C 358.292969 226.746094 360.371094 228.089844 363.363281 228.089844 C 366.144531 228.089844 368.1875 226.652344 368.1875 224.671875 C 368.1875 222.96875 366.886719 221.9375 363.929688 221.242188 L 361.054688 220.542969 C 357.011719 219.601562 355.171875 217.648438 355.171875 214.363281 C 355.171875 210.382812 358.421875 207.738281 363.296875 207.738281 C 367.835938 207.738281 371.140625 210.382812 371.34375 214.148438 L 367.96875 214.148438 C 367.648438 212.085938 365.847656 210.800781 363.246094 210.800781 C 360.507812 210.800781 358.679688 212.121094 358.679688 214.132812 C 358.679688 215.730469 359.859375 216.640625 362.773438 217.324219 L 365.230469 217.929688 C 369.8125 219 371.703125 220.859375 371.703125 224.21875 C 371.703125 228.492188 368.386719 231.175781 363.097656 231.175781 C 358.140625 231.175781 354.8125 228.621094 354.570312 224.621094 Z M 354.570312 224.621094 " fill-opacity="1" fill-rule="nonzero"/></g></svg>