<svg xmlns="http://www.w3.org/2000/svg" xmlns:xlink="http://www.w3.org/1999/xlink" width="500" zoomAndPan="magnify" viewBox="0 0 375 374.999991" height="500" preserveAspectRatio="xMidYMid meet" version="1.0"><path fill="#141520" d="M 77.453125 108.984375 L 171.203125 51.6875 C 172.425781 50.941406 173.691406 50.28125 175 49.710938 C 176.3125 49.136719 177.65625 48.65625 179.035156 48.269531 C 180.414062 47.882812 181.808594 47.589844 183.226562 47.394531 C 184.644531 47.199219 186.070312 47.101562 187.5 47.101562 C 188.929688 47.101562 190.355469 47.199219 191.773438 47.394531 C 193.191406 47.589844 194.585938 47.882812 195.964844 48.269531 C 197.34375 48.65625 198.6875 49.136719 200 49.710938 C 201.308594 50.28125 202.574219 50.941406 203.796875 51.6875 L 297.546875 108.984375 C 298.683594 109.679688 299.773438 110.445312 300.8125 111.28125 C 301.855469 112.117188 302.835938 113.011719 303.761719 113.972656 C 304.6875 114.933594 305.546875 115.949219 306.34375 117.023438 C 307.136719 118.09375 307.859375 119.210938 308.511719 120.375 C 309.164062 121.535156 309.738281 122.738281 310.238281 123.972656 C 310.734375 125.210938 311.152344 126.476562 311.488281 127.765625 C 311.824219 129.058594 312.078125 130.363281 312.246094 131.6875 C 312.417969 133.007812 312.5 134.339844 312.5 135.671875 L 312.5 239.328125 C 312.5 240.660156 312.414062 241.988281 312.246094 243.3125 C 312.078125 244.632812 311.824219 245.941406 311.488281 247.230469 C 311.148438 248.519531 310.730469 249.78125 310.234375 251.019531 C 309.734375 252.253906 309.160156 253.453125 308.507812 254.617188 C 307.855469 255.78125 307.132812 256.898438 306.339844 257.96875 C 305.542969 259.039062 304.683594 260.054688 303.757812 261.011719 C 302.835938 261.972656 301.851562 262.871094 300.8125 263.707031 C 299.773438 264.539062 298.683594 265.304688 297.546875 266 L 203.796875 323.296875 C 202.574219 324.042969 201.308594 324.703125 200 325.273438 C 198.6875 325.847656 197.34375 326.328125 195.964844 326.714844 C 194.585938 327.101562 193.191406 327.394531 191.773438 327.589844 C 190.355469 327.785156 188.929688 327.882812 187.5 327.882812 C 186.070312 327.882812 184.644531 327.785156 183.226562 327.589844 C 181.808594 327.394531 180.414062 327.101562 179.035156 326.714844 C 177.65625 326.328125 176.3125 325.847656 175 325.273438 C 173.691406 324.703125 172.425781 324.042969 171.203125 323.296875 C 170.328125 322.800781 169.414062 322.390625 168.460938 322.070312 C 167.507812 321.746094 166.535156 321.519531 165.539062 321.386719 C 164.539062 321.253906 163.539062 321.21875 162.535156 321.277344 C 161.53125 321.339844 160.542969 321.496094 159.570312 321.746094 C 158.597656 321.996094 157.65625 322.339844 156.746094 322.773438 C 155.839844 323.207031 154.980469 323.722656 154.175781 324.320312 C 153.367188 324.917969 152.621094 325.589844 151.945312 326.332031 C 151.265625 327.074219 150.664062 327.875 150.140625 328.730469 C 149.613281 329.589844 149.175781 330.492188 148.828125 331.433594 C 148.476562 332.375 148.21875 333.34375 148.054688 334.335938 C 147.894531 335.328125 147.824219 336.328125 147.855469 337.332031 C 147.882812 338.335938 148.011719 339.332031 148.230469 340.3125 C 148.453125 341.292969 148.765625 342.242188 149.167969 343.164062 C 149.574219 344.085938 150.0625 344.957031 150.636719 345.785156 C 151.210938 346.609375 151.855469 347.375 152.578125 348.074219 C 153.300781 348.777344 154.082031 349.402344 154.921875 349.953125 C 157.363281 351.445312 159.894531 352.761719 162.515625 353.90625 C 165.136719 355.046875 167.824219 356.007812 170.578125 356.78125 C 173.332031 357.554688 176.125 358.136719 178.960938 358.527344 C 181.792969 358.921875 184.640625 359.117188 187.5 359.117188 C 190.359375 359.117188 193.207031 358.921875 196.039062 358.527344 C 198.875 358.136719 201.667969 357.554688 204.421875 356.78125 C 207.175781 356.007812 209.863281 355.046875 212.484375 353.90625 C 215.105469 352.761719 217.636719 351.445312 220.078125 349.953125 L 313.828125 292.65625 C 316.101562 291.265625 318.28125 289.738281 320.359375 288.070312 C 322.441406 286.402344 324.402344 284.605469 326.253906 282.6875 C 328.105469 280.769531 329.824219 278.738281 331.414062 276.597656 C 333.003906 274.457031 334.453125 272.226562 335.757812 269.902344 C 337.0625 267.578125 338.210938 265.179688 339.210938 262.707031 C 340.207031 260.234375 341.042969 257.707031 341.71875 255.128906 C 342.390625 252.550781 342.898438 249.9375 343.238281 247.292969 C 343.578125 244.648438 343.75 241.992188 343.75 239.328125 L 343.75 135.671875 C 343.75 133.003906 343.582031 130.347656 343.242188 127.703125 C 342.902344 125.058594 342.394531 122.449219 341.71875 119.867188 C 341.046875 117.289062 340.210938 114.761719 339.214844 112.289062 C 338.214844 109.816406 337.066406 107.414062 335.761719 105.089844 C 334.457031 102.765625 333.007812 100.53125 331.417969 98.390625 C 329.828125 96.25 328.105469 94.21875 326.257812 92.300781 C 324.40625 90.378906 322.441406 88.585938 320.363281 86.917969 C 318.28125 85.246094 316.105469 83.71875 313.828125 82.328125 L 220.078125 25.03125 C 217.636719 23.539062 215.105469 22.222656 212.484375 21.078125 C 209.863281 19.9375 207.175781 18.976562 204.421875 18.203125 C 201.667969 17.429688 198.875 16.847656 196.039062 16.457031 C 193.207031 16.0625 190.359375 15.867188 187.5 15.867188 C 184.640625 15.867188 181.792969 16.0625 178.960938 16.457031 C 176.125 16.847656 173.332031 17.429688 170.578125 18.203125 C 167.824219 18.976562 165.136719 19.9375 162.515625 21.078125 C 159.894531 22.222656 157.363281 23.539062 154.921875 25.03125 L 61.171875 82.328125 C 58.898438 83.71875 56.71875 85.246094 54.640625 86.914062 C 52.558594 88.582031 50.597656 90.378906 48.746094 92.296875 C 46.894531 94.214844 45.175781 96.246094 43.585938 98.386719 C 41.996094 100.527344 40.546875 102.757812 39.242188 105.082031 C 37.9375 107.40625 36.789062 109.804688 35.789062 112.277344 C 34.792969 114.75 33.957031 117.277344 33.28125 119.855469 C 32.609375 122.433594 32.101562 125.046875 31.761719 127.691406 C 31.421875 130.335938 31.25 132.992188 31.25 135.65625 L 31.25 239.328125 C 31.25 242.011719 31.421875 244.683594 31.765625 247.347656 C 32.109375 250.007812 32.625 252.636719 33.304688 255.234375 C 33.988281 257.832031 34.835938 260.371094 35.847656 262.859375 C 36.855469 265.34375 38.023438 267.757812 39.34375 270.09375 C 40.664062 272.429688 42.128906 274.671875 43.738281 276.820312 C 45.347656 278.96875 47.089844 281.003906 48.960938 282.925781 C 50.835938 284.851562 52.824219 286.648438 54.925781 288.3125 C 57.03125 289.980469 59.230469 291.507812 61.53125 292.890625 L 86.03125 306.953125 C 86.917969 307.460938 87.820312 307.941406 88.734375 308.390625 C 89.652344 308.839844 90.585938 309.261719 91.527344 309.648438 C 92.472656 310.039062 93.429688 310.394531 94.398438 310.722656 C 95.367188 311.046875 96.34375 311.34375 97.332031 311.605469 C 98.320312 311.867188 99.3125 312.097656 100.316406 312.296875 C 101.320312 312.492188 102.328125 312.65625 103.339844 312.789062 C 104.351562 312.921875 105.367188 313.019531 106.386719 313.082031 C 107.40625 313.148438 108.429688 313.179688 109.449219 313.179688 C 110.472656 313.175781 111.492188 313.140625 112.511719 313.074219 C 113.53125 313.003906 114.546875 312.902344 115.558594 312.769531 C 116.574219 312.632812 117.578125 312.46875 118.582031 312.265625 C 119.582031 312.066406 120.578125 311.832031 121.5625 311.566406 C 122.550781 311.300781 123.527344 311.003906 124.492188 310.675781 C 125.460938 310.34375 126.417969 309.984375 127.359375 309.589844 C 128.304688 309.199219 129.234375 308.777344 130.148438 308.324219 C 131.066406 307.871094 131.964844 307.390625 132.847656 306.878906 C 133.734375 306.367188 134.601562 305.828125 135.449219 305.257812 C 136.296875 304.691406 137.128906 304.09375 137.9375 303.472656 C 138.746094 302.847656 139.535156 302.203125 140.304688 301.527344 C 141.070312 300.851562 141.816406 300.15625 142.539062 299.433594 C 143.261719 298.707031 143.957031 297.964844 144.632812 297.195312 C 145.304688 296.425781 145.953125 295.636719 146.574219 294.824219 C 147.195312 294.015625 147.789062 293.183594 148.359375 292.335938 C 148.925781 291.484375 149.464844 290.617188 149.972656 289.734375 C 150.484375 288.847656 150.964844 287.949219 151.417969 287.03125 C 151.871094 286.117188 152.292969 285.1875 152.683594 284.242188 C 153.074219 283.296875 153.433594 282.34375 153.761719 281.375 C 154.089844 280.40625 154.386719 279.429688 154.652344 278.445312 C 154.914062 277.457031 155.148438 276.460938 155.347656 275.460938 C 155.546875 274.457031 155.714844 273.449219 155.847656 272.4375 C 155.980469 271.425781 156.082031 270.410156 156.148438 269.390625 C 156.214844 268.371094 156.25 267.351562 156.25 266.328125 L 156.25 140.625 C 156.25 139.597656 156.148438 138.582031 155.949219 137.578125 C 155.75 136.570312 155.453125 135.59375 155.0625 134.644531 C 154.667969 133.699219 154.1875 132.796875 153.617188 131.945312 C 153.046875 131.089844 152.398438 130.300781 151.671875 129.578125 C 150.949219 128.851562 150.160156 128.203125 149.304688 127.632812 C 148.453125 127.0625 147.550781 126.582031 146.605469 126.1875 C 145.65625 125.796875 144.679688 125.5 143.671875 125.300781 C 142.667969 125.101562 141.652344 125 140.625 125 C 139.597656 125 138.582031 125.101562 137.578125 125.300781 C 136.570312 125.5 135.59375 125.796875 134.644531 126.1875 C 133.699219 126.582031 132.796875 127.0625 131.945312 127.632812 C 131.089844 128.203125 130.300781 128.851562 129.578125 129.578125 C 128.851562 130.300781 128.203125 131.089844 127.632812 131.945312 C 127.0625 132.796875 126.582031 133.699219 126.1875 134.644531 C 125.796875 135.59375 125.5 136.570312 125.300781 137.578125 C 125.101562 138.582031 125 139.597656 125 140.625 L 125 266.3125 C 125 266.652344 124.988281 266.992188 124.964844 267.332031 C 124.945312 267.671875 124.910156 268.011719 124.867188 268.347656 C 124.820312 268.6875 124.765625 269.023438 124.699219 269.355469 C 124.632812 269.691406 124.554688 270.023438 124.46875 270.351562 C 124.378906 270.679688 124.28125 271.007812 124.171875 271.328125 C 124.0625 271.652344 123.941406 271.96875 123.8125 272.285156 C 123.683594 272.601562 123.542969 272.910156 123.390625 273.214844 C 123.242188 273.519531 123.082031 273.820312 122.910156 274.117188 C 122.738281 274.410156 122.558594 274.699219 122.371094 274.984375 C 122.183594 275.265625 121.984375 275.542969 121.777344 275.8125 C 121.570312 276.085938 121.355469 276.347656 121.128906 276.605469 C 120.90625 276.859375 120.671875 277.109375 120.433594 277.351562 C 120.191406 277.589844 119.941406 277.824219 119.6875 278.046875 C 119.429688 278.273438 119.167969 278.488281 118.898438 278.695312 C 118.628906 278.90625 118.351562 279.101562 118.070312 279.292969 C 117.785156 279.480469 117.496094 279.664062 117.203125 279.832031 C 116.90625 280.003906 116.605469 280.164062 116.300781 280.316406 C 115.996094 280.464844 115.6875 280.605469 115.371094 280.738281 C 115.058594 280.867188 114.738281 280.988281 114.417969 281.097656 C 114.09375 281.207031 113.769531 281.308594 113.441406 281.398438 C 113.109375 281.484375 112.78125 281.5625 112.445312 281.628906 C 112.113281 281.695312 111.777344 281.753906 111.4375 281.796875 C 111.101562 281.84375 110.761719 281.875 110.421875 281.898438 C 110.082031 281.921875 109.742188 281.933594 109.402344 281.933594 C 109.0625 281.933594 108.71875 281.925781 108.378906 281.902344 C 108.039062 281.882812 107.703125 281.847656 107.363281 281.804688 C 107.027344 281.761719 106.691406 281.707031 106.355469 281.640625 C 106.023438 281.574219 105.691406 281.496094 105.359375 281.410156 C 105.03125 281.324219 104.707031 281.226562 104.382812 281.117188 C 104.058594 281.007812 103.742188 280.886719 103.425781 280.757812 C 103.113281 280.628906 102.800781 280.488281 102.496094 280.339844 C 102.191406 280.1875 101.890625 280.027344 101.59375 279.859375 L 77.296875 265.90625 C 76.171875 265.207031 75.09375 264.441406 74.0625 263.609375 C 73.035156 262.773438 72.0625 261.875 71.148438 260.917969 C 70.234375 259.960938 69.382812 258.949219 68.597656 257.882812 C 67.808594 256.816406 67.09375 255.703125 66.449219 254.546875 C 65.804688 253.386719 65.238281 252.195312 64.742188 250.964844 C 64.25 249.734375 63.835938 248.480469 63.503906 247.195312 C 63.171875 245.914062 62.921875 244.617188 62.753906 243.300781 C 62.585938 241.988281 62.5 240.667969 62.5 239.34375 L 62.5 135.640625 C 62.5 134.308594 62.585938 132.980469 62.753906 131.65625 C 62.921875 130.335938 63.175781 129.027344 63.511719 127.738281 C 63.851562 126.449219 64.269531 125.1875 64.765625 123.949219 C 65.265625 122.714844 65.839844 121.515625 66.492188 120.351562 C 67.144531 119.1875 67.867188 118.070312 68.660156 117 C 69.457031 115.929688 70.316406 114.914062 71.242188 113.957031 C 72.164062 112.996094 73.148438 112.097656 74.1875 111.261719 C 75.226562 110.429688 76.316406 109.664062 77.453125 108.96875 " fill-opacity="1" fill-rule="nonzero"/><path fill="#141520" d="M 210.9375 125 C 209.65625 125 208.382812 125.0625 207.109375 125.1875 C 205.835938 125.3125 204.570312 125.5 203.316406 125.75 C 202.0625 126 200.824219 126.3125 199.597656 126.683594 C 198.375 127.054688 197.171875 127.484375 195.988281 127.972656 C 194.808594 128.464844 193.652344 129.007812 192.523438 129.613281 C 191.394531 130.214844 190.300781 130.871094 189.234375 131.582031 C 188.171875 132.292969 187.144531 133.054688 186.15625 133.867188 C 185.167969 134.679688 184.222656 135.535156 183.316406 136.441406 C 182.410156 137.347656 181.554688 138.292969 180.742188 139.28125 C 179.929688 140.269531 179.167969 141.296875 178.457031 142.359375 C 177.746094 143.425781 177.089844 144.519531 176.488281 145.648438 C 175.882812 146.777344 175.339844 147.933594 174.847656 149.113281 C 174.359375 150.296875 173.929688 151.5 173.558594 152.722656 C 173.1875 153.949219 172.875 155.1875 172.625 156.441406 C 172.375 157.695312 172.1875 158.960938 172.0625 160.234375 C 171.9375 161.507812 171.875 162.78125 171.875 164.0625 C 171.875 165.34375 171.9375 166.617188 172.0625 167.890625 C 172.1875 169.164062 172.375 170.429688 172.625 171.683594 C 172.875 172.9375 173.1875 174.175781 173.558594 175.402344 C 173.929688 176.625 174.359375 177.828125 174.847656 179.011719 C 175.339844 180.191406 175.882812 181.347656 176.488281 182.476562 C 177.089844 183.605469 177.746094 184.699219 178.457031 185.765625 C 179.167969 186.828125 179.929688 187.855469 180.742188 188.84375 C 181.554688 189.832031 182.410156 190.777344 183.316406 191.683594 C 184.222656 192.589844 185.167969 193.445312 186.15625 194.257812 C 187.144531 195.070312 188.171875 195.832031 189.234375 196.542969 C 190.300781 197.253906 191.394531 197.910156 192.523438 198.511719 C 193.652344 199.117188 194.808594 199.660156 195.988281 200.152344 C 197.171875 200.640625 198.375 201.070312 199.597656 201.441406 C 200.824219 201.8125 202.0625 202.125 203.316406 202.375 C 204.570312 202.625 205.835938 202.8125 207.109375 202.9375 C 208.382812 203.0625 209.65625 203.125 210.9375 203.125 L 242.1875 203.125 C 242.699219 203.125 243.207031 203.175781 243.710938 203.273438 C 244.214844 203.375 244.703125 203.523438 245.175781 203.71875 C 245.652344 203.914062 246.101562 204.15625 246.527344 204.441406 C 246.953125 204.726562 247.347656 205.050781 247.710938 205.414062 C 248.074219 205.777344 248.398438 206.171875 248.683594 206.597656 C 248.96875 207.023438 249.207031 207.472656 249.40625 207.949219 C 249.601562 208.421875 249.75 208.910156 249.851562 209.414062 C 249.949219 209.917969 250 210.425781 250 210.9375 C 250 211.449219 249.949219 211.957031 249.851562 212.460938 C 249.75 212.964844 249.601562 213.453125 249.40625 213.925781 C 249.207031 214.402344 248.96875 214.851562 248.683594 215.277344 C 248.398438 215.703125 248.074219 216.097656 247.710938 216.460938 C 247.347656 216.824219 246.953125 217.148438 246.527344 217.433594 C 246.101562 217.71875 245.652344 217.957031 245.175781 218.15625 C 244.703125 218.351562 244.214844 218.5 243.710938 218.601562 C 243.207031 218.699219 242.699219 218.75 242.1875 218.75 L 187.5 218.75 C 186.472656 218.75 185.457031 218.851562 184.453125 219.050781 C 183.445312 219.25 182.46875 219.546875 181.519531 219.9375 C 180.574219 220.332031 179.671875 220.8125 178.820312 221.382812 C 177.964844 221.953125 177.175781 222.601562 176.453125 223.328125 C 175.726562 224.050781 175.078125 224.839844 174.507812 225.695312 C 173.9375 226.546875 173.457031 227.449219 173.0625 228.394531 C 172.671875 229.34375 172.375 230.320312 172.175781 231.328125 C 171.976562 232.332031 171.875 233.347656 171.875 234.375 C 171.875 235.402344 171.976562 236.417969 172.175781 237.421875 C 172.375 238.429688 172.671875 239.40625 173.0625 240.355469 C 173.457031 241.300781 173.9375 242.203125 174.507812 243.054688 C 175.078125 243.910156 175.726562 244.699219 176.453125 245.421875 C 177.175781 246.148438 177.964844 246.796875 178.820312 247.367188 C 179.671875 247.9375 180.574219 248.417969 181.519531 248.8125 C 182.46875 249.203125 183.445312 249.5 184.453125 249.699219 C 185.457031 249.898438 186.472656 250 187.5 250 L 242.1875 250 C 243.46875 250 244.742188 249.9375 246.015625 249.8125 C 247.289062 249.6875 248.554688 249.5 249.808594 249.25 C 251.0625 249 252.300781 248.6875 253.527344 248.316406 C 254.75 247.945312 255.953125 247.515625 257.136719 247.027344 C 258.316406 246.535156 259.472656 245.992188 260.601562 245.386719 C 261.730469 244.785156 262.824219 244.128906 263.890625 243.417969 C 264.953125 242.707031 265.980469 241.945312 266.96875 241.132812 C 267.957031 240.320312 268.902344 239.464844 269.808594 238.558594 C 270.714844 237.652344 271.570312 236.707031 272.382812 235.71875 C 273.195312 234.730469 273.957031 233.703125 274.667969 232.640625 C 275.378906 231.574219 276.035156 230.480469 276.636719 229.351562 C 277.242188 228.222656 277.785156 227.066406 278.277344 225.886719 C 278.765625 224.703125 279.195312 223.5 279.566406 222.277344 C 279.9375 221.050781 280.25 219.8125 280.5 218.558594 C 280.75 217.304688 280.9375 216.039062 281.0625 214.765625 C 281.1875 213.492188 281.25 212.21875 281.25 210.9375 C 281.25 209.65625 281.1875 208.382812 281.0625 207.109375 C 280.9375 205.835938 280.75 204.570312 280.5 203.316406 C 280.25 202.0625 279.9375 200.824219 279.566406 199.597656 C 279.195312 198.375 278.765625 197.171875 278.277344 195.988281 C 277.785156 194.808594 277.242188 193.652344 276.636719 192.523438 C 276.035156 191.394531 275.378906 190.300781 274.667969 189.234375 C 273.957031 188.171875 273.195312 187.144531 272.382812 186.15625 C 271.570312 185.167969 270.714844 184.222656 269.808594 183.316406 C 268.902344 182.410156 267.957031 181.554688 266.96875 180.742188 C 265.980469 179.929688 264.953125 179.167969 263.890625 178.457031 C 262.824219 177.746094 261.730469 177.089844 260.601562 176.488281 C 259.472656 175.882812 258.316406 175.339844 257.136719 174.847656 C 255.953125 174.359375 254.75 173.929688 253.527344 173.558594 C 252.300781 173.1875 251.0625 172.875 249.808594 172.625 C 248.554688 172.375 247.289062 172.1875 246.015625 172.0625 C 244.742188 171.9375 243.46875 171.875 242.1875 171.875 L 210.9375 171.875 C 210.425781 171.875 209.917969 171.824219 209.414062 171.726562 C 208.910156 171.625 208.421875 171.476562 207.949219 171.28125 C 207.472656 171.085938 207.023438 170.84375 206.597656 170.558594 C 206.171875 170.273438 205.777344 169.949219 205.414062 169.585938 C 205.050781 169.222656 204.726562 168.828125 204.441406 168.402344 C 204.15625 167.976562 203.914062 167.527344 203.71875 167.050781 C 203.523438 166.578125 203.375 166.089844 203.273438 165.585938 C 203.175781 165.082031 203.125 164.574219 203.125 164.0625 C 203.125 163.550781 203.175781 163.042969 203.273438 162.539062 C 203.375 162.035156 203.523438 161.546875 203.71875 161.074219 C 203.914062 160.597656 204.15625 160.148438 204.441406 159.722656 C 204.726562 159.296875 205.050781 158.902344 205.414062 158.539062 C 205.777344 158.175781 206.171875 157.851562 206.597656 157.566406 C 207.023438 157.28125 207.472656 157.039062 207.949219 156.84375 C 208.421875 156.648438 208.910156 156.5 209.414062 156.398438 C 209.917969 156.300781 210.425781 156.25 210.9375 156.25 L 265.625 156.25 C 266.652344 156.25 267.667969 156.148438 268.671875 155.949219 C 269.679688 155.75 270.65625 155.453125 271.605469 155.0625 C 272.550781 154.667969 273.453125 154.1875 274.304688 153.617188 C 275.160156 153.046875 275.949219 152.398438 276.671875 151.671875 C 277.398438 150.949219 278.046875 150.160156 278.617188 149.304688 C 279.1875 148.453125 279.667969 147.550781 280.0625 146.605469 C 280.453125 145.65625 280.75 144.679688 280.949219 143.671875 C 281.148438 142.667969 281.25 141.652344 281.25 140.625 C 281.25 139.597656 281.148438 138.582031 280.949219 137.578125 C 280.75 136.570312 280.453125 135.59375 280.0625 134.644531 C 279.667969 133.699219 279.1875 132.796875 278.617188 131.945312 C 278.046875 131.089844 277.398438 130.300781 276.671875 129.578125 C 275.949219 128.851562 275.160156 128.203125 274.304688 127.632812 C 273.453125 127.0625 272.550781 126.582031 271.605469 126.1875 C 270.65625 125.796875 269.679688 125.5 268.671875 125.300781 C 267.667969 125.101562 266.652344 125 265.625 125 Z M 210.9375 125 " fill-opacity="1" fill-rule="nonzero"/></svg>