<svg xmlns="http://www.w3.org/2000/svg" xmlns:xlink="http://www.w3.org/1999/xlink" width="500" zoomAndPan="magnify" viewBox="0 0 375 374.999991" height="500" preserveAspectRatio="xMidYMid meet" version="1.0"><defs><clipPath id="e673519ff7"><path d="M 15 5.941406 L 361 5.941406 L 361 366 L 15 366 Z M 15 5.941406 " clip-rule="nonzero"/></clipPath></defs><path fill="#000000" d="M 337.464844 229.695312 L 337.523438 229.636719 L 337.433594 229.695312 Z M 337.464844 229.695312 " fill-opacity="1" fill-rule="nonzero"/><path fill="#000000" d="M 293.039062 226.847656 L 293.066406 226.875 L 293.066406 226.890625 L 293.023438 226.90625 C 290.847656 227.703125 289.046875 228.03125 287.53125 228.707031 C 285.988281 229.320312 284.742188 230.445312 284.007812 231.886719 L 283.992188 231.917969 C 283.0625 233.640625 282.253906 236.703125 282.492188 241.90625 C 283.109375 242.355469 283.859375 242.703125 284.625 242.941406 L 284.683594 242.957031 C 287.21875 243.738281 291.460938 244.246094 296.203125 244.171875 C 305.652344 244.066406 317.289062 241.832031 323.46875 238.921875 C 328.792969 236.386719 333.355469 233.328125 337.417969 229.695312 C 316.78125 234.015625 305.125 232.863281 297.972656 229.875 C 296.113281 229.066406 294.476562 228.0625 293.039062 226.847656 Z M 293.039062 226.847656 " fill-opacity="1" fill-rule="nonzero"/><path fill="#000000" d="M 271.875 68.207031 L 271.964844 68.34375 L 272.070312 68.460938 Z M 271.875 68.207031 " fill-opacity="1" fill-rule="nonzero"/><path fill="#000000" d="M 192.9375 295.425781 C 192.921875 295.050781 192.9375 294.660156 192.921875 294.285156 C 192.921875 294.136719 192.90625 294.03125 192.90625 293.882812 Z M 192.9375 295.425781 " fill-opacity="1" fill-rule="nonzero"/><path fill="#000000" d="M 177.113281 229.230469 C 176.242188 228.796875 175.222656 228.480469 174.128906 228.332031 L 174.082031 228.332031 L 174.082031 228.300781 L 173.765625 228.300781 C 172.988281 228.375 171.847656 228.648438 169.628906 231.121094 C 164.46875 236.972656 162.667969 240.648438 158.410156 244.082031 C 154.148438 247.5 148.628906 249.332031 137.589844 251.625 C 134.09375 252.347656 132.085938 253.140625 130.765625 253.785156 C 131.199219 254.148438 131.15625 254.238281 131.800781 254.582031 C 133.421875 255.480469 135.492188 256.277344 137.171875 256.710938 C 141.910156 257.910156 149.710938 259.308594 157.839844 257.910156 C 165.96875 256.5 174.425781 252.558594 181.640625 242.3125 C 182.886719 240.542969 183.023438 237.933594 182 235.125 C 180.980469 232.320312 178.703125 229.90625 177.113281 229.230469 Z M 177.113281 229.230469 " fill-opacity="1" fill-rule="nonzero"/><path fill="#000000" d="M 237.675781 28.472656 L 236.820312 28.636719 C 237.105469 28.578125 237.421875 28.546875 237.707031 28.488281 C 237.691406 28.488281 237.691406 28.472656 237.675781 28.472656 Z M 237.675781 28.472656 " fill-opacity="1" fill-rule="nonzero"/><path fill="#000000" d="M 279.402344 109.441406 C 269.339844 109.578125 263.699219 112.203125 260.730469 115.636719 C 256.53125 120.511719 256.140625 129.0625 258.75 139.59375 C 261.34375 150.136719 266.699219 161.925781 271.738281 171.722656 C 274.257812 176.625 276.703125 181.035156 278.667969 184.621094 C 280.648438 188.222656 282.105469 190.773438 282.988281 192.945312 C 283.796875 194.957031 284.714844 196.726562 285.628906 198.375 C 289.527344 190.050781 290.21875 181.875 289.828125 173.355469 C 289.316406 162.8125 286.886719 152.027344 287.25 141.105469 C 287.652344 128.34375 290.144531 120.03125 290.351562 110.160156 C 287.066406 109.710938 283.257812 109.441406 279.402344 109.441406 Z M 281.261719 117.03125 L 281.25 117.152344 C 281.25 117.195312 281.25 117.242188 281.25 117.300781 C 281.25 117.992188 281.054688 118.652344 280.707031 119.191406 L 280.722656 119.175781 C 280.257812 120.03125 279.71875 120.78125 279.089844 121.425781 C 277.617188 123.0625 275.652344 124.203125 273.433594 124.59375 L 273.375 124.605469 C 273.058594 124.652344 272.699219 124.667969 272.324219 124.667969 C 270.433594 124.667969 268.695312 124.066406 267.269531 123.046875 L 267.300781 123.0625 C 266.566406 122.550781 265.921875 121.96875 265.394531 121.308594 L 265.378906 121.292969 C 264.914062 120.78125 264.585938 120.121094 264.449219 119.417969 L 264.449219 119.386719 C 264.449219 119.3125 264.433594 119.238281 264.433594 119.160156 C 264.433594 118.515625 264.675781 117.917969 265.078125 117.46875 C 265.558594 116.910156 266.128906 116.460938 266.789062 116.132812 L 266.820312 116.117188 C 268.246094 115.308594 270.164062 114.707031 272.339844 114.375 C 273.148438 114.257812 273.960938 114.195312 274.710938 114.183594 L 274.710938 114.226562 L 275.445312 114.226562 C 276.417969 114.257812 277.320312 114.363281 278.113281 114.558594 C 278.910156 114.738281 279.597656 115.007812 280.152344 115.382812 C 280.707031 115.757812 281.128906 116.328125 281.261719 117.03125 Z M 281.261719 117.03125 " fill-opacity="1" fill-rule="nonzero"/><path fill="#000000" d="M 114.34375 175.546875 C 114.34375 172.847656 114.550781 170.207031 114.941406 167.613281 L 114.910156 167.898438 C 116.441406 156.8125 116.652344 146.445312 116.472656 138.257812 C 116.292969 130.277344 115.722656 124.96875 115.722656 121.652344 C 115.722656 121.605469 115.722656 121.5625 115.722656 121.515625 C 115.722656 121.472656 115.722656 121.410156 115.722656 121.367188 L 115.722656 121.292969 L 115.707031 121.203125 L 115.707031 121.1875 C 115.707031 121.15625 115.707031 121.140625 115.707031 121.113281 C 115.707031 103.351562 118.828125 86.328125 124.480469 70.53125 C 128.636719 59.371094 134.816406 48.046875 144.070312 38.867188 C 134.964844 35.835938 118.828125 31.21875 101.339844 30.347656 C 99.65625 30.257812 97.691406 30.195312 95.726562 30.195312 L 95.714844 30.195312 L 95.714844 30.210938 C 93.839844 30.210938 91.949219 30.273438 90.089844 30.375 C 75.121094 31.246094 60.960938 35.640625 50.851562 46.5 C 40.714844 57.363281 34.039062 75.167969 35.492188 104.640625 C 35.777344 110.222656 38.179688 125.851562 42.289062 144.421875 C 46.414062 162.992188 52.21875 184.847656 59.207031 204.152344 C 66.210938 223.457031 74.699219 240.257812 82.769531 248.207031 C 86.835938 252.183594 90.359375 253.785156 93.554688 253.652344 C 96.761719 253.5 100.632812 251.625 105.359375 245.882812 C 114.640625 234.570312 123.417969 224.566406 132.476562 214.847656 L 132.175781 215.160156 C 121.226562 205.488281 114.34375 191.34375 114.34375 175.546875 Z M 114.34375 175.546875 " fill-opacity="1" fill-rule="nonzero"/><path fill="#000000" d="M 194.121094 29.460938 L 194.121094 29.433594 C 176.601562 29.476562 164.046875 34.832031 154.507812 42.855469 C 144.683594 51.152344 138.101562 62.507812 133.765625 74.132812 C 128.621094 87.933594 126.867188 101.28125 126.160156 110.34375 L 126.355469 110.222656 C 131.652344 107.222656 138.59375 104.222656 146.035156 102.480469 C 153.472656 100.742188 161.484375 100.21875 168.742188 103.066406 C 176.003906 105.917969 182 112.621094 184.175781 122.792969 C 194.601562 171.648438 180.9375 189.8125 175.898438 203.523438 C 174.292969 207.46875 172.628906 212.535156 171.234375 217.710938 L 170.992188 218.71875 C 171.621094 218.566406 172.265625 218.386719 172.898438 218.328125 C 176.453125 218.027344 179.242188 219.226562 180.890625 219.945312 C 185.960938 222.078125 189.441406 226.546875 191.316406 231.648438 C 191.8125 232.980469 192.15625 234.421875 192.367188 235.90625 C 192.5625 236.417969 192.664062 237.015625 192.664062 237.632812 C 192.664062 237.691406 192.664062 237.75 192.664062 237.8125 C 192.425781 245.3125 192.277344 254.117188 192.277344 262.96875 C 192.277344 273.453125 192.484375 283.890625 192.875 294.285156 C 193.21875 302.175781 193.714844 309.167969 194.332031 314.671875 C 194.976562 320.28125 195.875 324.527344 196.445312 325.96875 C 198.335938 330.765625 201.109375 337.050781 206.121094 341.328125 C 211.128906 345.585938 218.3125 348.4375 231.4375 345.585938 C 242.820312 343.113281 249.839844 339.675781 254.535156 334.742188 C 259.230469 329.808594 262.019531 322.9375 263.804688 312.421875 C 266.488281 296.671875 271.875 250.996094 272.535156 242.402344 C 272.234375 235.921875 273.179688 230.941406 275.234375 227.148438 C 277.332031 223.246094 280.605469 220.863281 283.410156 219.570312 C 284.820312 218.925781 286.136719 218.492188 287.21875 218.175781 C 285.898438 216.273438 284.714844 214.683594 283.484375 213.136719 L 283.617188 213.300781 C 279.734375 208.5625 276.417969 203.117188 273.914062 197.25 L 273.75 196.816406 C 272.234375 193.683594 270.960938 191.3125 269.625 188.988281 L 269.941406 189.570312 C 267.976562 185.972656 265.484375 181.472656 262.875 176.417969 C 257.65625 166.292969 251.984375 154.023438 249.03125 142.066406 C 246.089844 130.125 245.671875 117.765625 253.199219 109.050781 C 259.859375 101.3125 271.574219 98.101562 289.136719 99.902344 C 288.628906 98.328125 288.3125 97.023438 287.429688 94.921875 C 283.152344 84.871094 278.007812 76.203125 271.90625 68.34375 C 257.011719 49.113281 232.9375 30.078125 195.769531 29.460938 Z M 194.121094 29.460938 " fill-opacity="1" fill-rule="nonzero"/><path fill="#000000" d="M 125.949219 122.492188 L 125.980469 122.476562 L 126.027344 122.433594 Z M 125.949219 122.492188 " fill-opacity="1" fill-rule="nonzero"/><path fill="#000000" d="M 221.644531 12.257812 C 221.898438 12.183594 222.167969 12.152344 222.410156 12.09375 L 222.707031 12 Z M 221.644531 12.257812 " fill-opacity="1" fill-rule="nonzero"/><path fill="#000000" d="M 148 112.335938 L 148.148438 112.320312 L 148.269531 112.277344 Z M 148 112.335938 " fill-opacity="1" fill-rule="nonzero"/><path fill="#000000" d="M 166.582031 199.996094 C 172.597656 183.585938 184.429688 171.617188 174.472656 124.90625 C 172.835938 117.257812 169.613281 114.167969 165.171875 112.425781 C 163.011719 111.632812 160.507812 111.167969 157.882812 111.167969 C 157.71875 111.167969 157.539062 111.167969 157.375 111.167969 L 157.402344 111.167969 C 154.207031 111.195312 151.117188 111.601562 148.148438 112.320312 C 141.851562 113.910156 136.300781 116.160156 131.140625 119.042969 C 129.207031 120.105469 127.539062 121.21875 125.980469 122.460938 L 125.695312 122.730469 C 125.785156 124.921875 126.207031 130.230469 126.386719 138.046875 C 126.566406 146.597656 126.355469 157.5 124.722656 169.308594 C 121.179688 194.957031 139.570312 216.195312 161.167969 216.226562 C 162.441406 210.960938 164.511719 205.621094 166.582031 199.996094 Z M 153.820312 125.460938 C 153.113281 124.742188 152.542969 123.933594 152.078125 123.046875 L 152.050781 122.988281 C 151.660156 122.355469 151.433594 121.59375 151.433594 120.765625 C 151.433594 120.617188 151.449219 120.46875 151.464844 120.316406 L 151.464844 120.332031 C 151.6875 118.710938 153.007812 117.871094 154.285156 117.40625 C 155.46875 117.015625 156.789062 116.792969 158.199219 116.792969 C 158.410156 116.792969 158.617188 116.792969 158.859375 116.808594 L 158.84375 116.746094 C 159.625 116.746094 160.464844 116.820312 161.304688 116.941406 C 163.566406 117.257812 165.59375 117.871094 167.121094 118.773438 C 167.886719 119.191406 168.546875 119.71875 169.074219 120.347656 L 169.085938 120.363281 C 169.597656 120.945312 169.898438 121.710938 169.898438 122.566406 C 169.898438 122.6875 169.898438 122.808594 169.882812 122.925781 L 169.882812 122.910156 C 169.734375 123.8125 169.328125 124.59375 168.773438 125.222656 C 168.15625 125.972656 167.46875 126.617188 166.6875 127.15625 L 166.65625 127.171875 C 165.144531 128.28125 163.238281 128.941406 161.183594 128.941406 C 160.777344 128.941406 160.375 128.910156 159.984375 128.867188 L 160.027344 128.867188 C 157.539062 128.445312 155.410156 127.21875 153.820312 125.460938 Z M 153.820312 125.460938 " fill-opacity="1" fill-rule="nonzero"/><path fill="#000000" d="M 130.839844 119.191406 C 130.945312 119.132812 131.050781 119.101562 131.140625 119.042969 C 131.15625 119.042969 131.171875 119.027344 131.1875 119.011719 Z M 130.839844 119.191406 " fill-opacity="1" fill-rule="nonzero"/><path fill="#000000" d="M 279.898438 62.222656 C 286.394531 70.546875 292.019531 80.027344 296.351562 90.195312 L 296.667969 91.023438 C 298.300781 94.980469 299.398438 98.328125 300.011719 100.921875 C 300.328125 102.226562 300.539062 103.320312 300.613281 104.460938 C 300.640625 105.03125 300.671875 105.617188 300.433594 106.621094 C 300.433594 106.667969 300.355469 106.773438 300.34375 106.816406 C 300.792969 119.957031 297.566406 128.867188 297.191406 141.40625 C 296.890625 150.496094 299.1875 161.175781 299.757812 172.832031 C 300.296875 183.78125 298.992188 195.8125 291.957031 207.617188 C 292.558594 208.335938 293.082031 209.058594 293.652344 209.777344 C 312.234375 180.152344 325.628906 147.375 332.769531 119.433594 C 336.59375 104.386719 338.617188 90.75 338.800781 79.953125 C 338.949219 69.152344 336.953125 61.320312 334.433594 58.050781 C 314.546875 32.3125 287.652344 25.757812 265.09375 25.578125 L 265.09375 25.59375 L 262.933594 25.59375 C 254.234375 25.726562 245.835938 26.730469 237.722656 28.488281 C 256.140625 36.765625 270.089844 49.515625 279.898438 62.222656 Z M 279.898438 62.222656 " fill-opacity="1" fill-rule="nonzero"/><g clip-path="url(#e673519ff7)"><path fill="#000000" d="M 196.59375 9.8125 L 196.445312 9.8125 C 178.988281 9.511719 164.003906 13.800781 151.898438 20.941406 C 139.988281 16.757812 115.285156 9.542969 89.234375 10.980469 C 71.101562 11.988281 51.300781 17.566406 36.632812 33.242188 C 22.007812 48.917969 14.285156 73.171875 15.90625 106.171875 C 16.355469 115.277344 18.917969 130.125 23.164062 149.355469 C 27.425781 168.585938 33.394531 191.101562 40.847656 211.636719 C 48.300781 232.1875 56.460938 250.636719 69.226562 263.175781 C 75.601562 269.460938 84.375 274.742188 94.707031 274.308594 C 101.96875 274.007812 108.523438 270.78125 114.191406 266.027344 C 116.953125 269.703125 119.890625 271.308594 122.578125 272.792969 C 125.949219 274.667969 129.234375 275.941406 132.640625 276.78125 C 138.761719 278.328125 149.230469 280.398438 161.5 278.28125 C 165.683594 277.578125 170.078125 276.195312 174.457031 274.230469 C 174.621094 279.183594 174.816406 284.027344 174.996094 288.933594 C 175.613281 304.472656 175.988281 318.828125 180.589844 331.410156 C 181.328125 333.46875 183.367188 344.058594 191.359375 353.402344 C 199.355469 362.761719 215.042969 368.597656 232.890625 364.726562 C 245.492188 361.996094 261.496094 357.078125 272.144531 341.746094 C 282.660156 326.597656 287.398438 304.863281 288.34375 269.613281 C 288.582031 267.707031 288.867188 266.085938 289.152344 264.570312 L 291.65625 264.796875 L 291.957031 264.796875 C 305.398438 265.410156 319.976562 263.476562 332.15625 257.746094 C 342.9375 252.691406 351.097656 247.578125 357.050781 238.5 C 358.539062 236.25 360.15625 233.535156 360.605469 228.855469 C 361.058594 224.175781 358.402344 216.855469 353.992188 213.480469 C 345.171875 206.703125 339.640625 209.28125 333.699219 210.527344 C 328.40625 211.773438 322.285156 212.550781 316.015625 212.71875 L 315.894531 212.71875 C 333.023438 183.511719 345.308594 152.492188 352.3125 125.042969 C 356.46875 108.84375 358.792969 93.902344 358.972656 80.835938 C 359.167969 67.773438 358.117188 56.207031 350.378906 46.203125 C 326.214844 14.941406 292.242188 6.300781 265.949219 6 C 265.140625 5.988281 264.316406 5.972656 263.503906 5.988281 L 263.503906 5.941406 C 249.195312 6.0625 235.425781 8.222656 222.394531 12.078125 L 221.777344 12.285156 C 214.25 10.875 205.503906 9.976562 196.59375 9.8125 Z M 232.128906 19.367188 C 241.308594 17.101562 251.867188 15.738281 262.726562 15.601562 L 262.816406 15.601562 L 262.832031 15.542969 C 287.699219 15.300781 319.449219 22.367188 342.265625 51.871094 C 347.394531 58.5 348.921875 68.191406 348.742188 80.132812 C 348.546875 92.058594 346.375 106.335938 342.382812 121.980469 C 334.644531 152.28125 320.035156 187.605469 299.457031 219.300781 C 300.132812 219.796875 300.914062 220.230469 301.722656 220.5625 L 301.796875 220.59375 C 306.085938 222.390625 315.882812 223.9375 335.425781 219.871094 C 340.34375 218.820312 343.945312 218.117188 347.679688 220.996094 C 349.359375 222.4375 350.40625 224.566406 350.40625 226.953125 C 350.40625 227.101562 350.40625 227.25 350.394531 227.402344 L 350.394531 227.386719 C 350.167969 229.292969 349.492188 231 348.457031 232.425781 C 344.679688 238.171875 337.222656 243.617188 327.683594 248.101562 C 319.226562 252.09375 307.089844 254.175781 296.335938 254.296875 C 290.9375 254.355469 285.972656 253.9375 281.742188 252.601562 L 281.472656 252.496094 C 279.839844 268.398438 276.089844 299.792969 273.644531 314.117188 C 271.695312 325.667969 268.273438 334.847656 261.734375 341.71875 C 255.210938 348.585938 245.988281 352.726562 233.566406 355.425781 C 218.195312 358.773438 206.972656 355.171875 199.746094 349.007812 C 192.53125 342.855469 189.230469 334.695312 187.234375 329.703125 C 185.871094 326.25 185.167969 321.78125 184.476562 315.8125 C 183.785156 309.839844 183.292969 302.535156 182.945312 294.300781 C 182.617188 285.933594 182.4375 276.09375 182.4375 266.207031 C 182.4375 262.953125 182.464844 259.710938 182.496094 256.457031 C 176.300781 262.21875 168.472656 266.265625 159.773438 267.8125 L 159.503906 267.855469 C 149.289062 269.613281 140.183594 267.886719 134.742188 266.507812 C 131.84375 265.773438 129.324219 264.738281 126.957031 263.445312 C 124.464844 262.097656 122.097656 260.550781 120.507812 257.535156 C 119.875 256.382812 119.5 254.988281 119.5 253.515625 C 119.5 252.933594 119.5625 252.347656 119.679688 251.808594 C 120.222656 249.796875 121.347656 248.085938 122.890625 246.886719 L 122.90625 246.871094 C 125.847656 244.457031 129.714844 243.105469 135.582031 241.875 C 146.230469 239.65625 149.949219 238.140625 152.214844 236.328125 C 154.132812 234.765625 156.324219 231.617188 160.164062 226.996094 C 160.148438 226.863281 160.132812 226.636719 160.117188 226.425781 L 160.117188 226.382812 C 152.859375 226.171875 146.09375 224.207031 140.183594 220.890625 L 140.410156 221.011719 C 138.191406 223.382812 126.835938 235.53125 113.007812 252.390625 C 107.1875 259.441406 100.753906 263.492188 93.972656 263.777344 C 87.195312 264.0625 81.058594 260.613281 75.839844 255.496094 C 65.414062 245.25 57.105469 227.625 49.863281 207.707031 C 42.632812 187.785156 36.753906 165.601562 32.570312 146.703125 C 28.367188 127.800781 25.910156 112.5625 25.550781 105.210938 C 23.988281 73.980469 31.203125 52.9375 43.578125 39.660156 C 55.964844 26.386719 72.945312 21.363281 89.488281 20.402344 C 119.203125 18.675781 147.398438 29.160156 153.113281 31.410156 C 164.121094 23.851562 178.296875 19.140625 195.980469 19.441406 C 204.890625 19.578125 213.453125 20.761719 221.644531 22.875 L 220.894531 22.710938 L 221.195312 22.578125 C 224.058594 21.496094 227.71875 20.402344 231.46875 19.5 Z M 232.128906 19.367188 " fill-opacity="1" fill-rule="nonzero"/></g></svg>