<svg xmlns="http://www.w3.org/2000/svg" xmlns:xlink="http://www.w3.org/1999/xlink" width="500" zoomAndPan="magnify" viewBox="0 0 375 374.999991" height="500" preserveAspectRatio="xMidYMid meet" version="1.0"><path fill="#000000" d="M 187.496094 2.953125 C 85.445312 2.953125 2.707031 85.679688 2.707031 187.734375 C 2.707031 289.789062 85.445312 372.519531 187.496094 372.519531 C 289.546875 372.519531 372.28125 289.789062 372.28125 187.734375 C 372.28125 85.679688 289.542969 2.953125 187.496094 2.953125 M 187.496094 348.792969 C 158.460938 348.792969 134.921875 329.398438 134.921875 305.476562 L 240.070312 305.476562 C 240.070312 329.394531 216.53125 348.792969 187.496094 348.792969 M 274.335938 291.132812 L 100.648438 291.132812 L 100.648438 259.636719 L 274.339844 259.636719 L 274.339844 291.132812 Z M 273.710938 243.429688 L 101.144531 243.429688 C 100.570312 242.769531 99.984375 242.117188 99.429688 241.445312 C 81.648438 219.855469 77.460938 208.585938 73.394531 197.101562 C 73.328125 196.722656 94.953125 201.519531 110.289062 204.96875 C 110.289062 204.96875 118.179688 206.796875 129.71875 208.898438 C 118.640625 195.914062 112.0625 179.40625 112.0625 162.535156 C 112.0625 125.492188 140.472656 93.125 130.222656 66.964844 C 140.199219 67.777344 150.867188 88.015625 151.589844 119.664062 C 162.195312 105.007812 166.632812 78.246094 166.632812 61.835938 C 166.632812 44.847656 177.828125 25.113281 189.027344 24.4375 C 179.042969 40.890625 191.609375 54.992188 202.785156 89.980469 C 206.972656 103.121094 206.4375 125.238281 209.671875 139.261719 C 210.746094 110.132812 215.753906 67.628906 234.234375 52.957031 C 226.082031 71.433594 235.441406 94.558594 241.84375 105.675781 C 252.171875 123.609375 258.429688 137.199219 258.429688 162.898438 C 258.429688 180.128906 252.070312 196.351562 241.339844 209.03125 C 253.539062 206.742188 261.964844 204.679688 261.964844 204.679688 L 301.59375 196.949219 C 301.597656 196.945312 295.839844 220.625 273.710938 243.429688 " fill-opacity="1" fill-rule="nonzero"/></svg>