<svg xmlns="http://www.w3.org/2000/svg" xmlns:xlink="http://www.w3.org/1999/xlink" width="500" zoomAndPan="magnify" viewBox="0 0 375 374.999991" height="500" preserveAspectRatio="xMidYMid meet" version="1.0"><defs><clipPath id="e28cc4d5ab"><path d="M 1.652344 228 L 373.652344 228 L 373.652344 352 L 1.652344 352 Z M 1.652344 228 " clip-rule="nonzero"/></clipPath><clipPath id="18d244cb6c"><path d="M 1.652344 167 L 373.652344 167 L 373.652344 291 L 1.652344 291 Z M 1.652344 167 " clip-rule="nonzero"/></clipPath><clipPath id="ea0064ef47"><path d="M 1.652344 32 L 373.652344 32 L 373.652344 227 L 1.652344 227 Z M 1.652344 32 " clip-rule="nonzero"/></clipPath></defs><g clip-path="url(#e28cc4d5ab)"><path fill="#000000" d="M 1.652344 271.257812 C 1.652344 275.011719 6.828125 278.992188 16.6875 283.707031 C 36.402344 293.128906 145.847656 337.335938 163.132812 345.597656 C 180.429688 353.875 192.582031 353.984375 214.484375 342.558594 C 236.367188 331.152344 339.210938 288.867188 359.066406 278.511719 C 369.15625 273.257812 373.621094 269.167969 373.621094 265.460938 L 373.636719 228.386719 L 373.558594 228.355469 C 373.402344 231.90625 368.707031 235.871094 359.066406 240.910156 C 339.210938 251.25 236.367188 293.546875 214.484375 304.957031 C 192.597656 316.363281 180.429688 316.253906 163.132812 307.980469 C 145.832031 299.71875 36.402344 255.496094 16.6875 246.085938 C 6.84375 241.375 1.824219 237.40625 1.652344 233.65625 Z M 1.652344 271.257812 " fill-opacity="1" fill-rule="nonzero"/></g><g clip-path="url(#18d244cb6c)"><path fill="#000000" d="M 1.652344 209.957031 C 1.652344 213.707031 6.828125 217.675781 16.6875 222.386719 C 36.402344 231.8125 145.832031 276.015625 163.132812 284.277344 C 180.429688 292.554688 192.582031 292.664062 214.484375 281.257812 C 236.367188 269.847656 339.210938 227.550781 359.066406 217.210938 C 369.15625 211.941406 373.621094 207.847656 373.621094 204.144531 L 373.636719 167.066406 L 373.542969 167.050781 C 373.371094 170.601562 368.691406 174.554688 359.066406 179.59375 C 339.210938 189.929688 236.367188 232.230469 214.484375 243.636719 C 192.597656 255.046875 180.429688 254.9375 163.132812 246.675781 C 145.832031 238.414062 36.402344 194.191406 16.6875 184.769531 C 6.84375 180.074219 1.824219 176.089844 1.652344 172.355469 Z M 1.652344 209.957031 " fill-opacity="1" fill-rule="nonzero"/></g><g clip-path="url(#ea0064ef47)"><path fill="#000000" d="M 358.835938 92.714844 C 339.488281 85.632812 237.265625 44.945312 217.691406 37.765625 C 198.113281 30.589844 190.148438 30.902344 167.144531 39.148438 C 144.144531 47.40625 35.300781 90.09375 15.941406 97.675781 C 6.253906 101.488281 1.511719 105.007812 1.683594 108.757812 L 1.683594 146.359375 C 1.683594 150.109375 6.859375 154.078125 16.71875 158.789062 C 36.433594 168.214844 145.863281 212.4375 163.160156 220.699219 C 180.460938 228.960938 192.613281 229.066406 214.511719 217.660156 C 236.398438 206.253906 339.242188 163.953125 359.097656 153.613281 C 369.1875 148.34375 373.652344 144.253906 373.652344 140.546875 L 373.667969 103.472656 L 373.542969 103.472656 C 373.730469 99.691406 368.785156 96.371094 358.835938 92.714844 M 175.839844 67.742188 L 167.503906 52.367188 L 193.511719 62.535156 L 218.03125 54.507812 L 211.398438 70.394531 L 236.382812 79.757812 L 204.160156 83.105469 L 196.9375 100.464844 L 185.28125 81.105469 L 148.066406 77.757812 Z M 65.542969 107.285156 C 65.542969 97.425781 86.171875 89.429688 111.625 89.429688 C 137.074219 89.429688 157.691406 97.425781 157.691406 107.285156 C 157.691406 117.140625 137.058594 125.140625 111.625 125.140625 C 86.1875 125.140625 65.542969 117.128906 65.542969 107.285156 M 195.015625 164 L 134.859375 139.058594 L 221.054688 125.824219 Z M 268.996094 126.984375 L 218.046875 106.851562 L 274.5 84.53125 L 325.492188 104.679688 Z M 268.996094 126.984375 " fill-opacity="1" fill-rule="nonzero"/></g></svg>