<svg xmlns="http://www.w3.org/2000/svg" xmlns:xlink="http://www.w3.org/1999/xlink" width="500" zoomAndPan="magnify" viewBox="0 0 375 374.999991" height="500" preserveAspectRatio="xMidYMid meet" version="1.0"><path fill="#000000" d="M 289.0625 148.59375 C 283.199219 146.582031 277.730469 143.796875 272.65625 140.238281 C 267.582031 136.679688 263.105469 132.484375 259.21875 127.65625 C 257.082031 124.976562 254.796875 122.429688 252.371094 120.011719 C 249.941406 117.59375 247.386719 115.324219 244.699219 113.199219 C 242.011719 111.070312 239.214844 109.105469 236.300781 107.296875 C 233.390625 105.492188 230.386719 103.855469 227.289062 102.390625 C 224.191406 100.925781 221.019531 99.644531 217.777344 98.539062 C 214.53125 97.4375 211.238281 96.523438 207.890625 95.792969 C 204.539062 95.066406 201.160156 94.535156 197.753906 94.191406 C 194.34375 93.847656 190.925781 93.703125 187.5 93.75 C 185.214844 93.589844 182.925781 93.53125 180.632812 93.585938 C 178.339844 93.636719 176.054688 93.792969 173.777344 94.058594 C 171.503906 94.324219 169.242188 94.691406 167 95.167969 C 164.757812 95.644531 162.542969 96.222656 160.351562 96.902344 C 158.164062 97.585938 156.011719 98.367188 153.898438 99.25 C 151.78125 100.132812 149.710938 101.113281 147.6875 102.1875 C 145.664062 103.261719 143.691406 104.429688 141.777344 105.691406 C 139.863281 106.949219 138.007812 108.292969 136.21875 109.726562 C 134.429688 111.160156 132.710938 112.671875 131.058594 114.261719 C 129.410156 115.855469 127.839844 117.519531 126.347656 119.261719 C 124.851562 121 123.441406 122.804688 122.117188 124.675781 C 120.792969 126.542969 119.554688 128.472656 118.410156 130.457031 C 117.265625 132.441406 116.214844 134.476562 115.257812 136.5625 C 114.300781 138.644531 113.445312 140.769531 112.6875 142.929688 C 111.929688 145.09375 111.273438 147.289062 110.722656 149.511719 C 110.167969 151.738281 109.71875 153.984375 109.375 156.25 C 110.054688 155.113281 110.777344 154.003906 111.542969 152.925781 C 112.3125 151.84375 113.121094 150.796875 113.96875 149.777344 C 114.820312 148.761719 115.707031 147.78125 116.632812 146.835938 C 117.558594 145.886719 118.523438 144.980469 119.519531 144.109375 C 120.519531 143.238281 121.550781 142.40625 122.613281 141.617188 C 123.675781 140.828125 124.769531 140.082031 125.894531 139.378906 C 127.015625 138.675781 128.164062 138.015625 129.339844 137.402344 C 130.511719 136.789062 131.710938 136.222656 132.929688 135.703125 C 134.148438 135.1875 135.382812 134.714844 136.640625 134.292969 C 137.894531 133.875 139.167969 133.5 140.453125 133.179688 C 141.738281 132.859375 143.03125 132.589844 144.339844 132.367188 C 145.644531 132.148438 146.957031 131.980469 148.277344 131.867188 C 149.597656 131.75 150.917969 131.6875 152.246094 131.675781 C 153.570312 131.664062 154.890625 131.703125 156.214844 131.796875 C 157.535156 131.886719 158.851562 132.03125 160.160156 132.226562 C 161.472656 132.421875 162.773438 132.671875 164.0625 132.96875 C 169.914062 135.039062 175.375 137.863281 180.445312 141.449219 C 185.515625 145.03125 190.003906 149.234375 193.90625 154.0625 C 196.054688 156.71875 198.347656 159.246094 200.785156 161.640625 C 203.222656 164.035156 205.785156 166.285156 208.476562 168.390625 C 211.167969 170.496094 213.972656 172.441406 216.886719 174.226562 C 219.800781 176.011719 222.804688 177.625 225.902344 179.070312 C 228.996094 180.515625 232.167969 181.777344 235.40625 182.863281 C 238.648438 183.945312 241.941406 184.839844 245.28125 185.550781 C 248.625 186.261719 251.996094 186.777344 255.398438 187.105469 C 258.800781 187.429688 262.207031 187.5625 265.625 187.5 C 267.910156 187.660156 270.199219 187.71875 272.492188 187.664062 C 274.785156 187.613281 277.070312 187.457031 279.347656 187.191406 C 281.621094 186.925781 283.882812 186.558594 286.125 186.082031 C 288.367188 185.605469 290.582031 185.027344 292.773438 184.347656 C 294.960938 183.664062 297.113281 182.882812 299.226562 182 C 301.34375 181.117188 303.414062 180.136719 305.4375 179.0625 C 307.460938 177.988281 309.433594 176.820312 311.347656 175.558594 C 313.261719 174.300781 315.117188 172.957031 316.90625 171.523438 C 318.695312 170.089844 320.414062 168.578125 322.066406 166.988281 C 323.714844 165.394531 325.285156 163.730469 326.777344 161.988281 C 328.273438 160.25 329.683594 158.445312 331.007812 156.574219 C 332.332031 154.707031 333.570312 152.777344 334.714844 150.792969 C 335.859375 148.808594 336.910156 146.773438 337.867188 144.6875 C 338.824219 142.605469 339.679688 140.480469 340.4375 138.320312 C 341.195312 136.15625 341.851562 133.960938 342.402344 131.738281 C 342.957031 129.511719 343.40625 127.265625 343.75 125 C 343.082031 126.152344 342.371094 127.273438 341.613281 128.367188 C 340.859375 129.460938 340.058594 130.523438 339.21875 131.550781 C 338.375 132.582031 337.496094 133.578125 336.574219 134.535156 C 335.652344 135.496094 334.695312 136.417969 333.703125 137.300781 C 332.707031 138.183594 331.679688 139.027344 330.617188 139.828125 C 329.554688 140.628906 328.464844 141.386719 327.34375 142.097656 C 326.222656 142.8125 325.074219 143.480469 323.898438 144.105469 C 322.722656 144.726562 321.523438 145.300781 320.300781 145.828125 C 319.082031 146.355469 317.839844 146.832031 316.582031 147.261719 C 315.324219 147.6875 314.046875 148.066406 312.757812 148.390625 C 311.46875 148.71875 310.171875 148.992188 308.859375 149.214844 C 307.546875 149.4375 306.230469 149.605469 304.90625 149.722656 C 303.582031 149.839844 302.253906 149.90625 300.921875 149.917969 C 299.59375 149.929688 298.265625 149.886719 296.9375 149.792969 C 295.613281 149.695312 294.292969 149.550781 292.976562 149.351562 C 291.660156 149.148438 290.355469 148.898438 289.0625 148.59375 M 85.9375 226.40625 C 91.800781 228.417969 97.269531 231.203125 102.34375 234.761719 C 107.417969 238.320312 111.894531 242.515625 115.78125 247.34375 C 117.917969 250.023438 120.203125 252.570312 122.628906 254.988281 C 125.058594 257.40625 127.613281 259.675781 130.300781 261.800781 C 132.988281 263.929688 135.785156 265.894531 138.699219 267.703125 C 141.609375 269.507812 144.613281 271.144531 147.710938 272.609375 C 150.808594 274.074219 153.980469 275.355469 157.222656 276.460938 C 160.46875 277.5625 163.761719 278.476562 167.109375 279.203125 C 170.460938 279.933594 173.839844 280.464844 177.246094 280.808594 C 180.65625 281.152344 184.074219 281.296875 187.5 281.25 C 189.785156 281.410156 192.074219 281.46875 194.367188 281.414062 C 196.660156 281.363281 198.945312 281.207031 201.222656 280.941406 C 203.496094 280.675781 205.757812 280.308594 208 279.832031 C 210.242188 279.355469 212.457031 278.777344 214.648438 278.097656 C 216.835938 277.414062 218.988281 276.632812 221.101562 275.75 C 223.21875 274.867188 225.289062 273.886719 227.3125 272.8125 C 229.335938 271.738281 231.308594 270.570312 233.222656 269.308594 C 235.136719 268.050781 236.992188 266.707031 238.78125 265.273438 C 240.570312 263.839844 242.289062 262.328125 243.941406 260.738281 C 245.589844 259.144531 247.160156 257.480469 248.652344 255.738281 C 250.148438 254 251.558594 252.195312 252.882812 250.324219 C 254.207031 248.457031 255.445312 246.527344 256.589844 244.542969 C 257.734375 242.558594 258.785156 240.523438 259.742188 238.4375 C 260.699219 236.355469 261.554688 234.230469 262.3125 232.070312 C 263.070312 229.90625 263.726562 227.710938 264.277344 225.488281 C 264.832031 223.261719 265.28125 221.015625 265.625 218.75 C 264.945312 219.886719 264.222656 220.996094 263.457031 222.074219 C 262.6875 223.15625 261.878906 224.203125 261.03125 225.222656 C 260.179688 226.238281 259.292969 227.21875 258.367188 228.164062 C 257.441406 229.113281 256.476562 230.019531 255.480469 230.890625 C 254.480469 231.761719 253.449219 232.59375 252.386719 233.382812 C 251.324219 234.171875 250.230469 234.917969 249.105469 235.621094 C 247.984375 236.324219 246.835938 236.984375 245.660156 237.597656 C 244.488281 238.210938 243.289062 238.777344 242.070312 239.296875 C 240.851562 239.8125 239.617188 240.285156 238.359375 240.707031 C 237.105469 241.128906 235.832031 241.5 234.546875 241.820312 C 233.261719 242.140625 231.96875 242.410156 230.660156 242.632812 C 229.355469 242.851562 228.042969 243.019531 226.722656 243.132812 C 225.402344 243.25 224.082031 243.3125 222.753906 243.324219 C 221.429688 243.335938 220.109375 243.296875 218.785156 243.203125 C 217.464844 243.113281 216.148438 242.96875 214.839844 242.773438 C 213.527344 242.578125 212.226562 242.328125 210.9375 242.03125 C 205.085938 239.960938 199.625 237.136719 194.554688 233.550781 C 189.484375 229.96875 184.996094 225.765625 181.09375 220.9375 C 178.9375 218.289062 176.640625 215.765625 174.203125 213.378906 C 171.761719 210.988281 169.195312 208.742188 166.5 206.640625 C 163.808594 204.542969 161.003906 202.601562 158.089844 200.816406 C 155.175781 199.035156 152.171875 197.421875 149.078125 195.976562 C 145.980469 194.535156 142.8125 193.269531 139.574219 192.183594 C 136.335938 191.097656 133.046875 190.199219 129.707031 189.488281 C 126.367188 188.773438 122.996094 188.25 119.597656 187.917969 C 116.199219 187.585938 112.789062 187.445312 109.375 187.5 C 107.089844 187.339844 104.800781 187.28125 102.507812 187.335938 C 100.214844 187.386719 97.929688 187.542969 95.652344 187.808594 C 93.378906 188.074219 91.117188 188.441406 88.875 188.917969 C 86.632812 189.394531 84.417969 189.972656 82.226562 190.652344 C 80.039062 191.335938 77.886719 192.117188 75.773438 193 C 73.65625 193.882812 71.585938 194.863281 69.5625 195.9375 C 67.539062 197.011719 65.566406 198.179688 63.652344 199.441406 C 61.738281 200.699219 59.882812 202.042969 58.09375 203.476562 C 56.304688 204.910156 54.585938 206.421875 52.933594 208.011719 C 51.285156 209.605469 49.714844 211.269531 48.222656 213.011719 C 46.726562 214.75 45.316406 216.554688 43.992188 218.425781 C 42.667969 220.292969 41.429688 222.222656 40.285156 224.207031 C 39.140625 226.191406 38.089844 228.226562 37.132812 230.3125 C 36.175781 232.394531 35.320312 234.519531 34.5625 236.679688 C 33.804688 238.84375 33.148438 241.039062 32.597656 243.261719 C 32.042969 245.488281 31.59375 247.734375 31.25 250 C 31.917969 248.847656 32.628906 247.726562 33.386719 246.632812 C 34.140625 245.539062 34.941406 244.476562 35.78125 243.449219 C 36.625 242.417969 37.503906 241.421875 38.425781 240.464844 C 39.347656 239.503906 40.304688 238.582031 41.296875 237.699219 C 42.292969 236.816406 43.320312 235.972656 44.382812 235.171875 C 45.445312 234.371094 46.535156 233.613281 47.65625 232.902344 C 48.777344 232.1875 49.925781 231.519531 51.101562 230.894531 C 52.277344 230.273438 53.476562 229.699219 54.699219 229.171875 C 55.917969 228.644531 57.160156 228.167969 58.417969 227.738281 C 59.675781 227.3125 60.953125 226.933594 62.242188 226.609375 C 63.53125 226.28125 64.828125 226.007812 66.140625 225.785156 C 67.453125 225.5625 68.769531 225.394531 70.09375 225.277344 C 71.417969 225.160156 72.746094 225.09375 74.078125 225.082031 C 75.40625 225.070312 76.734375 225.113281 78.0625 225.207031 C 79.386719 225.304688 80.707031 225.449219 82.023438 225.648438 C 83.339844 225.851562 84.644531 226.101562 85.9375 226.40625 " fill-opacity="1" fill-rule="nonzero"/></svg>