<svg xmlns="http://www.w3.org/2000/svg" xmlns:xlink="http://www.w3.org/1999/xlink" width="500" zoomAndPan="magnify" viewBox="0 0 375 374.999991" height="500" preserveAspectRatio="xMidYMid meet" version="1.0"><path fill="#000000" d="M 46.875 46.875 L 46.875 328.125 L 328.125 328.125 L 328.125 46.875 Z M 210.15625 195.3125 L 173.515625 195.3125 L 173.515625 302.8125 L 150.078125 302.8125 L 150.078125 195.3125 L 113.828125 195.3125 L 113.828125 175.46875 L 210.15625 175.46875 Z M 252.265625 304.6875 C 246.292969 304.804688 240.390625 304.207031 234.5625 302.882812 C 228.734375 301.5625 223.152344 299.558594 217.8125 296.875 L 222.96875 277.65625 C 227.695312 280.214844 232.664062 282.152344 237.875 283.476562 C 243.082031 284.796875 248.375 285.460938 253.75 285.46875 C 268.59375 285.46875 277.1875 278.515625 277.1875 268.125 C 277.1875 257.734375 270.78125 252.5 254.609375 246.953125 C 233.59375 239.53125 220.15625 228.28125 220.15625 210 C 220.15625 189.140625 237.578125 173.4375 265.234375 173.4375 C 270.503906 173.289062 275.71875 173.746094 280.878906 174.816406 C 286.039062 175.886719 291.007812 177.535156 295.78125 179.765625 L 290.234375 198.515625 C 286.300781 196.484375 282.175781 194.953125 277.871094 193.921875 C 273.5625 192.890625 269.195312 192.390625 264.765625 192.421875 C 250 192.421875 243.75 200.234375 243.75 208.046875 C 243.75 217.8125 251.09375 222.421875 268.046875 228.90625 C 290.234375 237.34375 300.859375 248.4375 300.859375 266.71875 C 300.546875 287.03125 285.078125 304.6875 252.265625 304.6875 " fill-opacity="1" fill-rule="nonzero"/></svg>